<?xml version="1.0" encoding="UTF-8"?><svg xmlns="http://www.w3.org/2000/svg" xmlns:xlink="http://www.w3.org/1999/xlink" width="375" zoomAndPan="magnify" viewBox="0 0 375 374.999991" height="374.999991" preserveAspectRatio="xMidYMid meet" version="1.0"><defs><clipPath id="clip-0"><path d="M 25.078125 156 L 51 156 L 51 169 L 25.078125 169 Z M 25.078125 156 " clip-rule="nonzero"/></clipPath><clipPath id="clip-1"><path d="M 324 156 L 349.828125 156 L 349.828125 169 L 324 169 Z M 324 156 " clip-rule="nonzero"/></clipPath></defs><path fill="rgb(0%, 0%, 0%)" d="M 237.578125 247.003906 L 221.570312 257.191406 C 219.769531 258.339844 218.679688 260.328125 218.679688 262.464844 L 218.679688 274.957031 L 206.1875 274.957031 L 206.1875 220.554688 L 248.929688 153.375 C 250.5 150.902344 250.144531 147.671875 248.074219 145.601562 L 229.339844 126.859375 C 226.898438 124.421875 222.949219 124.421875 220.507812 126.859375 L 206.1875 141.183594 L 191.867188 126.859375 C 189.429688 124.421875 185.476562 124.421875 183.039062 126.859375 L 168.71875 141.183594 L 154.398438 126.859375 L 145.566406 135.695312 L 164.300781 154.433594 C 166.742188 156.875 170.695312 156.875 173.132812 154.433594 L 187.453125 140.109375 L 201.773438 154.433594 C 204.210938 156.875 208.164062 156.875 210.605469 154.433594 L 224.925781 140.109375 L 235.699219 150.890625 L 194.675781 215.378906 C 194.035156 216.382812 193.699219 217.546875 193.699219 218.734375 L 193.699219 274.957031 L 156.226562 274.957031 L 156.226562 262.464844 C 156.226562 260.328125 155.136719 258.339844 153.335938 257.191406 L 137.328125 247.003906 C 106.148438 227.152344 87.53125 193.234375 87.53125 156.265625 C 87.53125 101.152344 132.355469 56.3125 187.453125 56.3125 C 242.550781 56.3125 287.375 101.152344 287.375 156.265625 C 287.375 193.234375 268.757812 227.152344 237.578125 247.003906 Z M 203.066406 362.414062 L 171.839844 362.414062 L 162.472656 349.921875 L 212.433594 349.921875 Z M 156.226562 329.4375 L 218.679688 308.613281 L 218.679688 337.429688 L 156.226562 337.429688 Z M 218.679688 287.453125 L 218.679688 295.445312 L 156.226562 316.269531 L 156.226562 287.453125 Z M 299.867188 156.265625 C 299.867188 94.261719 249.4375 43.820312 187.453125 43.820312 C 125.46875 43.820312 75.039062 94.261719 75.039062 156.265625 C 75.039062 176.402344 80.160156 196.378906 89.847656 214.03125 C 99.535156 231.6875 113.636719 246.734375 130.621094 257.542969 L 143.738281 265.890625 L 143.738281 343.675781 C 143.738281 345.082031 144.207031 346.375 144.988281 347.417969 L 144.988281 347.421875 L 163.722656 372.410156 C 164.898438 373.984375 166.75 374.910156 168.71875 374.910156 L 206.1875 374.910156 C 208.15625 374.910156 210.007812 373.984375 211.183594 372.410156 L 229.917969 347.421875 L 229.917969 347.417969 C 230.699219 346.375 231.167969 345.082031 231.167969 343.675781 L 231.167969 265.890625 L 244.285156 257.542969 C 261.269531 246.734375 275.371094 231.6875 285.058594 214.03125 C 294.746094 196.378906 299.867188 176.402344 299.867188 156.265625 " fill-opacity="1" fill-rule="nonzero"/><path fill="rgb(0%, 0%, 0%)" d="M 193.699219 0.0898438 L 181.207031 0.0898438 L 181.207031 25.078125 L 193.699219 25.078125 L 193.699219 0.0898438 " fill-opacity="1" fill-rule="nonzero"/><path fill="rgb(0%, 0%, 0%)" d="M 124.164062 40.367188 L 111.675781 18.726562 L 100.855469 24.972656 L 113.347656 46.613281 L 124.164062 40.367188 " fill-opacity="1" fill-rule="nonzero"/><path fill="rgb(0%, 0%, 0%)" d="M 49.957031 75.890625 L 43.710938 86.710938 L 65.34375 99.207031 L 71.585938 88.382812 L 49.957031 75.890625 " fill-opacity="1" fill-rule="nonzero"/><g clip-path="url(#clip-0)"><path fill="rgb(0%, 0%, 0%)" d="M 25.078125 168.757812 L 50.058594 168.757812 L 50.058594 156.265625 L 25.078125 156.265625 L 25.078125 168.757812 " fill-opacity="1" fill-rule="nonzero"/></g><path fill="rgb(0%, 0%, 0%)" d="M 43.710938 238.3125 L 49.957031 249.132812 L 71.585938 236.640625 L 65.34375 225.816406 L 43.710938 238.3125 " fill-opacity="1" fill-rule="nonzero"/><path fill="rgb(0%, 0%, 0%)" d="M 124.164062 284.65625 L 113.347656 278.410156 L 100.855469 300.050781 L 111.675781 306.296875 L 124.164062 284.65625 " fill-opacity="1" fill-rule="nonzero"/><path fill="rgb(0%, 0%, 0%)" d="M 250.742188 284.65625 L 263.230469 306.296875 L 274.050781 300.050781 L 261.558594 278.410156 L 250.742188 284.65625 " fill-opacity="1" fill-rule="nonzero"/><path fill="rgb(0%, 0%, 0%)" d="M 324.949219 249.132812 L 331.195312 238.3125 L 309.5625 225.816406 L 303.320312 236.640625 L 324.949219 249.132812 " fill-opacity="1" fill-rule="nonzero"/><g clip-path="url(#clip-1)"><path fill="rgb(0%, 0%, 0%)" d="M 349.828125 156.265625 L 324.847656 156.265625 L 324.847656 168.757812 L 349.828125 168.757812 L 349.828125 156.265625 " fill-opacity="1" fill-rule="nonzero"/></g><path fill="rgb(0%, 0%, 0%)" d="M 331.195312 86.710938 L 324.949219 75.890625 L 303.320312 88.382812 L 309.5625 99.207031 L 331.195312 86.710938 " fill-opacity="1" fill-rule="nonzero"/><path fill="rgb(0%, 0%, 0%)" d="M 263.230469 18.726562 L 250.742188 40.367188 L 261.558594 46.613281 L 274.050781 24.972656 L 263.230469 18.726562 " fill-opacity="1" fill-rule="nonzero"/></svg>