<?xml version="1.0" encoding="UTF-8"?><svg xmlns="http://www.w3.org/2000/svg" xmlns:xlink="http://www.w3.org/1999/xlink" width="375" zoomAndPan="magnify" viewBox="0 0 375 374.999991" height="374.999991" preserveAspectRatio="xMidYMid meet" version="1.0"><defs><clipPath id="clip-0"><path d="M 22.03125 158 L 48 158 L 48 172 L 22.03125 172 Z M 22.03125 158 " clip-rule="nonzero"/></clipPath><clipPath id="clip-1"><path d="M 327 158 L 352.78125 158 L 352.78125 172 L 327 172 Z M 327 158 " clip-rule="nonzero"/></clipPath></defs><path fill="rgb(100%, 76.858521%, 19.219971%)" d="M 187.40625 50.847656 C 127.765625 50.847656 79.417969 99.222656 79.417969 158.898438 C 79.417969 198.484375 99.628906 235.328125 133.007812 256.582031 L 149.292969 266.949219 L 149.292969 286.015625 L 225.519531 286.015625 L 225.519531 266.949219 L 241.804688 256.582031 C 275.183594 235.328125 295.394531 198.484375 295.394531 158.898438 C 295.394531 99.222656 247.046875 50.847656 187.40625 50.847656 " fill-opacity="1" fill-rule="nonzero"/><path fill="rgb(50.19989%, 59.609985%, 67.059326%)" d="M 225.519531 286.015625 L 225.519531 349.578125 L 149.292969 349.578125 L 149.292969 286.015625 L 225.519531 286.015625 " fill-opacity="1" fill-rule="nonzero"/><path fill="rgb(100%, 88.62915%, 56.079102%)" d="M 206.464844 286.015625 L 193.757812 286.015625 L 193.757812 222.457031 C 193.757812 221.25 194.101562 220.066406 194.75 219.042969 L 236.480469 153.429688 L 225.519531 142.460938 L 210.953125 157.035156 C 208.472656 159.519531 204.453125 159.519531 201.972656 157.035156 L 187.40625 142.460938 L 172.839844 157.035156 C 170.359375 159.519531 166.339844 159.519531 163.859375 157.035156 L 144.800781 137.96875 L 153.785156 128.980469 L 168.347656 143.554688 L 182.914062 128.980469 C 185.394531 126.496094 189.417969 126.496094 191.898438 128.980469 L 206.464844 143.554688 L 221.027344 128.980469 C 223.511719 126.496094 227.53125 126.496094 230.011719 128.980469 L 249.070312 148.046875 C 251.175781 150.15625 251.535156 153.441406 249.9375 155.957031 L 206.464844 224.308594 L 206.464844 286.015625 " fill-opacity="1" fill-rule="nonzero"/><path fill="rgb(44.309998%, 52.938843%, 59.999084%)" d="M 149.292969 349.578125 L 168.347656 375 L 206.464844 375 L 225.519531 349.578125 L 149.292969 349.578125 " fill-opacity="1" fill-rule="nonzero"/><path fill="rgb(100%, 84.709167%, 45.098877%)" d="M 193.757812 25.421875 L 181.054688 25.421875 L 181.054688 0 L 193.757812 0 L 193.757812 25.421875 " fill-opacity="1" fill-rule="nonzero"/><path fill="rgb(100%, 84.709167%, 45.098877%)" d="M 112.027344 47.335938 L 99.324219 25.316406 L 110.328125 18.960938 L 123.03125 40.976562 L 112.027344 47.335938 " fill-opacity="1" fill-rule="nonzero"/><path fill="rgb(100%, 84.709167%, 45.098877%)" d="M 63.199219 100.84375 L 41.195312 88.132812 L 47.550781 77.121094 L 69.554688 89.832031 L 63.199219 100.84375 " fill-opacity="1" fill-rule="nonzero"/><g clip-path="url(#clip-0)"><path fill="rgb(100%, 84.709167%, 45.098877%)" d="M 47.65625 171.609375 L 22.246094 171.609375 L 22.246094 158.898438 L 47.65625 158.898438 L 47.65625 171.609375 " fill-opacity="1" fill-rule="nonzero"/></g><path fill="rgb(100%, 84.709167%, 45.098877%)" d="M 47.550781 253.386719 L 41.195312 242.375 L 63.199219 229.664062 L 69.554688 240.675781 L 47.550781 253.386719 " fill-opacity="1" fill-rule="nonzero"/><path fill="rgb(100%, 84.709167%, 45.098877%)" d="M 110.328125 311.546875 L 99.324219 305.191406 L 112.027344 283.175781 L 123.03125 289.53125 L 110.328125 311.546875 " fill-opacity="1" fill-rule="nonzero"/><path fill="rgb(100%, 84.709167%, 45.098877%)" d="M 264.484375 311.546875 L 251.78125 289.53125 L 262.785156 283.175781 L 275.488281 305.191406 L 264.484375 311.546875 " fill-opacity="1" fill-rule="nonzero"/><path fill="rgb(100%, 84.709167%, 45.098877%)" d="M 327.261719 253.386719 L 305.257812 240.675781 L 311.613281 229.664062 L 333.617188 242.375 L 327.261719 253.386719 " fill-opacity="1" fill-rule="nonzero"/><g clip-path="url(#clip-1)"><path fill="rgb(100%, 84.709167%, 45.098877%)" d="M 352.566406 171.609375 L 327.15625 171.609375 L 327.15625 158.898438 L 352.566406 158.898438 L 352.566406 171.609375 " fill-opacity="1" fill-rule="nonzero"/></g><path fill="rgb(100%, 84.709167%, 45.098877%)" d="M 311.613281 100.84375 L 305.257812 89.832031 L 327.261719 77.121094 L 333.617188 88.132812 L 311.613281 100.84375 " fill-opacity="1" fill-rule="nonzero"/><path fill="rgb(100%, 84.709167%, 45.098877%)" d="M 262.785156 47.335938 L 251.78125 40.976562 L 264.484375 18.960938 L 275.488281 25.316406 L 262.785156 47.335938 " fill-opacity="1" fill-rule="nonzero"/><path fill="rgb(44.309998%, 52.938843%, 59.999084%)" d="M 225.519531 298.386719 L 225.519531 311.78125 L 149.292969 337.207031 L 149.292969 323.8125 L 225.519531 298.386719 " fill-opacity="1" fill-rule="nonzero"/></svg>