<?xml version="1.0" encoding="UTF-8"?><svg xmlns="http://www.w3.org/2000/svg" xmlns:xlink="http://www.w3.org/1999/xlink" width="375" zoomAndPan="magnify" viewBox="0 0 375 374.999991" height="374.999991" preserveAspectRatio="xMidYMid meet" version="1.0"><defs><clipPath id="clip-0"><path d="M 107 5.328125 L 304.832031 5.328125 L 304.832031 285.949219 L 107 285.949219 Z M 107 5.328125 " clip-rule="nonzero"/></clipPath><clipPath id="clip-1"><path d="M 156 349 L 226 349 L 226 369.703125 L 156 369.703125 Z M 156 349 " clip-rule="nonzero"/></clipPath></defs><g clip-path="url(#clip-0)"><path fill="rgb(26.669312%, 25.489807%, 25.878906%)" d="M 108.140625 41.246094 C 140.066406 17.734375 170.410156 6.734375 210.179688 14.519531 C 253.746094 23.035156 288.140625 52.910156 298.769531 96.40625 C 305.675781 124.703125 295.335938 151.09375 279.632812 174.355469 C 270.605469 187.703125 260.3125 199.890625 258.265625 216.457031 C 255.664062 237.453125 262.566406 268.636719 236.257812 274.855469 C 223.738281 277.816406 209.820312 273.675781 197.925781 278.769531 C 196.574219 279.347656 196.792969 283.769531 198.371094 283.960938 C 211.976562 285.707031 230.546875 285.695312 243.417969 280.515625 C 258.277344 274.542969 260.832031 257.121094 261.242188 242.738281 C 261.746094 224.9375 262.617188 210.253906 272.980469 194.988281 C 280.644531 183.726562 288.40625 173.597656 294.457031 161.261719 C 302.820312 144.226562 306.386719 125.617188 304.191406 106.730469 C 299.238281 64.28125 273.933594 28.9375 233.042969 14.085938 C 186.96875 -2.671875 143.066406 4.160156 107.816406 38.707031 C 107.359375 39.164062 107.597656 41.644531 108.140625 41.246094 " fill-opacity="1" fill-rule="nonzero"/></g><path fill="rgb(26.669312%, 25.489807%, 25.878906%)" d="M 104.226562 42.835938 C 82.074219 60.195312 75 89.828125 75.3125 116.617188 C 75.6875 148.203125 93.066406 167.042969 107.128906 193.582031 C 119.445312 216.851562 109.539062 244.523438 118.121094 268.953125 C 121.15625 277.589844 126.664062 283.238281 136.050781 283.347656 C 154.863281 283.5625 173.640625 283.660156 192.5 284.238281 C 194.996094 284.308594 194.863281 275.9375 192.296875 276.046875 C 178.039062 276.683594 163.675781 276.671875 149.441406 277.671875 C 131.96875 278.890625 122.917969 272.347656 119.578125 255.292969 C 115.902344 236.574219 119.902344 217.359375 115.023438 198.773438 C 108.902344 175.402344 88.679688 158.683594 81.242188 135.785156 C 70.371094 102.222656 86.246094 72.761719 104.816406 46.355469 C 105.203125 45.789062 104.972656 42.257812 104.226562 42.835938 " fill-opacity="1" fill-rule="nonzero"/><path fill="rgb(26.669312%, 25.489807%, 25.878906%)" d="M 128.351562 281.902344 C 123.132812 285.996094 121.90625 300.320312 131.558594 300.511719 C 142.5 300.71875 155.804688 296.007812 166.253906 292.804688 C 177.0625 289.488281 188.246094 290.574219 198.503906 285.273438 C 198.898438 285.082031 198.863281 283.285156 198.359375 283.273438 C 187.789062 282.902344 176.363281 286.550781 166.167969 289.261719 C 159.515625 291.03125 153.105469 292.933594 146.632812 295.332031 C 143.933594 296.34375 122.808594 298.5625 129.316406 287.273438 C 129.773438 286.464844 129.726562 280.816406 128.351562 281.902344 " fill-opacity="1" fill-rule="nonzero"/><path fill="rgb(26.669312%, 25.489807%, 25.878906%)" d="M 164.347656 311.738281 C 165.652344 311.628906 166.964844 311.460938 168.277344 311.246094 C 168.433594 311.207031 168.601562 311.160156 168.773438 311.113281 C 170.882812 310.582031 173.074219 310.171875 175.28125 309.800781 C 180.003906 308.644531 184.703125 307.246094 189.285156 306.234375 C 196.042969 304.753906 202.816406 303.332031 209.589844 301.886719 C 210.035156 301.03125 209.902344 298.679688 209.097656 298.609375 C 195.984375 297.621094 181.65625 303.425781 168.640625 305.644531 C 161.925781 306.765625 155.226562 309.4375 148.609375 311.0625 C 145.261719 311.789062 141.898438 312.425781 138.511719 312.992188 C 127.183594 315.003906 130.027344 304.222656 135.582031 300.125 C 136.050781 299.789062 136.125 297.574219 135.402344 297.523438 C 124.121094 296.730469 122.230469 311.414062 131.074219 316.183594 C 138.316406 320.074219 151.070312 316.425781 160.867188 313.4375 C 161.671875 312.511719 162.832031 311.847656 164.347656 311.738281 " fill-opacity="1" fill-rule="nonzero"/><path fill="rgb(26.669312%, 25.489807%, 25.878906%)" d="M 241.683594 283.382812 C 245.671875 283.035156 250.25 285.273438 245.816406 289.261719 C 242.875 291.898438 237.945312 292.476562 234.199219 293.066406 C 227.0625 294.175781 219.917969 294.332031 214.363281 299.535156 C 213.976562 299.886719 213.796875 302.308594 214.554688 302.246094 C 221.121094 301.703125 227.980469 299.886719 234.320312 298.089844 C 237.800781 297.113281 247.019531 294.960938 248.996094 291.644531 C 252.613281 285.574219 249.695312 276.527344 241.585938 278.925781 C 240.5 279.25 240.695312 283.480469 241.683594 283.382812 " fill-opacity="1" fill-rule="nonzero"/><path fill="rgb(26.669312%, 25.489807%, 25.878906%)" d="M 133.136719 313.4375 C 126.144531 316.796875 123.351562 325.445312 129.664062 331.253906 C 135.015625 336.179688 143.1875 333.914062 149.25 332.109375 C 157.335938 329.699219 165.675781 328.339844 173.796875 326.0625 C 175.160156 325.675781 174.640625 321.109375 173.6875 321.363281 C 165.492188 323.53125 157.15625 324.738281 149.128906 327.542969 C 144.800781 329.0625 140.679688 330.351562 136.039062 330.035156 C 134.269531 329.808594 132.667969 329.179688 131.230469 328.195312 C 125.011719 324.554688 131.050781 319.59375 133.691406 317.847656 C 134.644531 317.207031 134.328125 312.871094 133.136719 313.4375 " fill-opacity="1" fill-rule="nonzero"/><path fill="rgb(26.669312%, 25.489807%, 25.878906%)" d="M 179.378906 323.386719 C 192.332031 325.640625 205.214844 317.53125 218.171875 316.414062 C 226.933594 315.652344 234.464844 316.546875 242.925781 313.257812 C 251.300781 310.015625 255.15625 292.933594 242.898438 293.71875 C 241.476562 293.816406 241.742188 298.835938 242.792969 299.402344 C 257.046875 307.160156 226.050781 310.378906 221.640625 310.65625 C 205.769531 311.628906 194.054688 316.414062 179.328125 321.339844 C 178.8125 321.507812 178.8125 323.289062 179.378906 323.386719 " fill-opacity="1" fill-rule="nonzero"/><path fill="rgb(26.669312%, 25.489807%, 25.878906%)" d="M 134.039062 331.410156 C 123.460938 333.613281 127.519531 348.128906 134.738281 351.863281 C 142.222656 355.742188 164.097656 346.441406 171.675781 344.273438 C 187.246094 339.828125 203.40625 337.167969 219.050781 332.988281 C 220.097656 332.710938 220.015625 328.785156 218.953125 328.773438 C 205.699219 328.519531 189.945312 334.613281 177.003906 338 C 170.144531 339.769531 163.253906 340.554688 156.457031 342.613281 C 153.308594 343.625 150.175781 344.636719 147.019531 345.648438 C 145.71875 345.972656 144.402344 346.296875 143.089844 346.636719 C 136.632812 348.453125 133.691406 344.636719 134.328125 335.191406 C 135.101562 334.808594 134.894531 331.230469 134.039062 331.410156 " fill-opacity="1" fill-rule="nonzero"/><path fill="rgb(26.669312%, 25.489807%, 25.878906%)" d="M 240.511719 313.015625 C 242.898438 314.917969 246.152344 315.472656 248.023438 317.90625 C 249.660156 320.039062 241.078125 323.121094 239.800781 323.375 C 236.644531 324 233.402344 323.75 230.257812 324.304688 C 227.472656 324.796875 223.292969 325.097656 221.519531 327.363281 C 221.0625 327.929688 220.871094 329.890625 221.59375 330.375 C 223.496094 331.652344 225.496094 330.613281 227.726562 330.890625 C 231.027344 331.277344 234.03125 331.144531 237.308594 330.722656 C 242.082031 330.121094 247.082031 328.746094 249.734375 324.484375 C 254 317.617188 245.875 301.679688 240.5 312.90625 L 240.511719 313.015625 " fill-opacity="1" fill-rule="nonzero"/><path fill="rgb(26.669312%, 25.489807%, 25.878906%)" d="M 156.285156 350.058594 C 172.566406 352.09375 189.574219 351.550781 205.949219 351.175781 C 214.15625 350.996094 222.269531 350.285156 230.476562 350.636719 C 234.730469 350.828125 241.007812 351.296875 244.851562 348.972656 C 254.769531 342.925781 254.433594 326 240.222656 326.097656 C 238.984375 326.109375 239.199219 330.773438 240.355469 331.167969 C 245.902344 332.011719 248.214844 336.046875 247.285156 343.25 C 243.730469 346.191406 238.332031 346.203125 234.019531 346.371094 C 226.640625 346.648438 219.171875 346.492188 211.785156 346.636719 C 202.117188 346.816406 192.464844 347.140625 182.800781 346.9375 C 173.304688 346.730469 165.3125 345.167969 156.25 348.851562 C 155.972656 348.972656 155.949219 350.019531 156.285156 350.058594 " fill-opacity="1" fill-rule="nonzero"/><g clip-path="url(#clip-1)"><path fill="rgb(26.669312%, 25.489807%, 25.878906%)" d="M 156.25 351.03125 C 167.398438 357.394531 177.0625 367.320312 190.128906 369.523438 C 200.972656 371.355469 217.640625 358.644531 224.75 352.261719 C 225.183594 351.875 225.363281 349.128906 224.535156 349.191406 C 212.496094 350.082031 204.601562 361.140625 192.71875 363.152344 C 179.871094 365.332031 169.21875 351.140625 156.261719 350.5625 L 156.25 351.03125 " fill-opacity="1" fill-rule="nonzero"/></g><path fill="rgb(26.669312%, 25.489807%, 25.878906%)" d="M 166.191406 279.40625 C 167.6875 257.398438 166.386719 235.488281 166.746094 213.480469 C 167.046875 195.542969 157.335938 185.980469 153.273438 169.234375 C 150.476562 157.71875 149.863281 142.855469 159.203125 134.109375 C 170.675781 123.390625 178.679688 139.3125 180.980469 148.3125 C 182.390625 153.78125 182.800781 159.730469 181.871094 165.320312 C 180.617188 176.257812 176.183594 175.8125 168.554688 163.984375 C 168.628906 160.332031 169.398438 156.863281 170.855469 153.574219 C 174.097656 144.976562 180.074219 136.554688 187.8125 131.554688 C 197.671875 125.195312 202.792969 138.21875 204.855469 145.289062 C 206.347656 150.433594 207.011719 155.839844 207.410156 161.140625 C 207.832031 166.898438 203.15625 183.234375 197.140625 172.152344 C 186.835938 153.128906 214.917969 115.1875 226.558594 143.230469 C 234.367188 162.019531 225.136719 174.609375 212.964844 187.125 C 209.398438 190.808594 206.769531 196.820312 206.527344 201.964844 C 205.40625 225.898438 209.082031 249.847656 207.121094 273.902344 C 206.722656 278.839844 211.433594 284.214844 211.941406 276.734375 C 213.277344 256.714844 212.398438 236.367188 211 216.382812 C 209.976562 201.675781 217.074219 194.21875 226.089844 184.835938 C 230.460938 180.292969 231.726562 173.898438 232.65625 167.910156 C 235.269531 150.984375 227.484375 109.320312 203.746094 129.773438 C 190.355469 141.3125 184.835938 166.273438 196.273438 181.304688 C 200.851562 187.328125 206.699219 184.859375 209.15625 177.8125 C 212.410156 168.488281 211.21875 157.527344 209.203125 148.058594 C 207.300781 139.15625 205.105469 127.917969 196.886719 122.667969 C 187.886719 116.921875 177.21875 131.75 173.21875 137.652344 C 167.820312 145.636719 156.40625 185.738281 176.292969 184.003906 C 183.691406 183.367188 185.257812 168.234375 185.765625 163.117188 C 186.703125 153.648438 184.34375 141.21875 179.90625 132.808594 C 174.859375 123.246094 167.699219 119.75 158.117188 125.894531 C 148.539062 132.039062 148.066406 147.566406 148.25 157.515625 C 148.476562 169.96875 151.949219 181.726562 158.191406 192.410156 C 165.3125 204.613281 162.792969 220.324219 163.15625 233.863281 C 163.53125 248.425781 163.613281 263 163.046875 277.566406 C 162.925781 280.683594 165.84375 284.359375 166.191406 279.40625 " fill-opacity="1" fill-rule="nonzero"/><path fill="rgb(26.669312%, 25.489807%, 25.878906%)" d="M 117.058594 228.417969 C 126.953125 260.90625 156.914062 263.554688 186.609375 260.964844 C 221.339844 257.953125 252.925781 249.21875 263.59375 212.265625 C 263.675781 212 263.410156 210.890625 263.171875 211.503906 C 249.867188 245.472656 224.28125 255.003906 190.246094 258.90625 C 160.554688 262.300781 127.882812 261.433594 117.503906 227.753906 C 117.265625 226.9375 116.925781 228.03125 117.058594 228.417969 " fill-opacity="1" fill-rule="nonzero"/><path fill="rgb(26.669312%, 25.489807%, 25.878906%)" d="M 117.925781 256.542969 C 118.433594 253.859375 119.144531 251.207031 119.722656 248.535156 C 120.15625 246.484375 122.167969 240.488281 120.179688 238.667969 L 120.058594 238.96875 C 120.109375 243.59375 118.15625 248.367188 117.097656 252.835938 C 117.058594 252.980469 117.023438 253.136719 116.988281 253.292969 C 117.335938 254.363281 117.648438 255.449219 117.925781 256.542969 " fill-opacity="1" fill-rule="nonzero"/><path fill="rgb(26.669312%, 25.489807%, 25.878906%)" d="M 128.074219 246.789062 C 125.894531 253.640625 123.699219 260.84375 123.363281 267.953125 C 123.351562 268.109375 123.640625 269.964844 123.953125 269.242188 C 125.097656 266.542969 125.542969 263.542969 126.183594 260.6875 C 127.109375 256.582031 128.160156 252.496094 129.160156 248.390625 C 128.785156 247.871094 128.425781 247.339844 128.074219 246.789062 " fill-opacity="1" fill-rule="nonzero"/><path fill="rgb(26.669312%, 25.489807%, 25.878906%)" d="M 134.644531 253.929688 C 132.363281 260.617188 129.507812 267.675781 129.796875 274.6875 C 129.808594 275 130.125 276.445312 130.449219 275.492188 C 131.546875 272.242188 131.824219 268.699219 132.714844 265.363281 C 133.667969 261.832031 134.847656 258.363281 135.921875 254.859375 C 135.472656 254.570312 135.0625 254.242188 134.644531 253.929688 " fill-opacity="1" fill-rule="nonzero"/><path fill="rgb(26.669312%, 25.489807%, 25.878906%)" d="M 140.691406 278.503906 C 141.863281 271.808594 143.308594 265.601562 146.03125 259.496094 C 145.390625 259.304688 144.777344 259.085938 144.164062 258.871094 C 141.34375 265 139.199219 271.867188 139.714844 278.324219 C 140.03125 278.382812 140.367188 278.433594 140.691406 278.503906 " fill-opacity="1" fill-rule="nonzero"/><path fill="rgb(26.669312%, 25.489807%, 25.878906%)" d="M 152.648438 280.09375 C 152.984375 277.710938 153.261719 275.300781 153.839844 272.914062 C 154.769531 269.097656 156.09375 265.398438 157.601562 261.761719 C 156.960938 261.699219 156.324219 261.617188 155.695312 261.53125 C 153.226562 267.386719 151.042969 273.792969 150.984375 279.9375 C 151.539062 279.984375 152.09375 280.058594 152.648438 280.09375 " fill-opacity="1" fill-rule="nonzero"/><path fill="rgb(26.669312%, 25.489807%, 25.878906%)" d="M 163.625 280.574219 C 164.53125 278 164.796875 275.15625 165.363281 272.515625 C 166.121094 269 167.191406 265.589844 168.628906 262.316406 C 167.953125 262.316406 167.277344 262.316406 166.601562 262.300781 C 164.335938 267.964844 162.832031 274.191406 162.613281 280.035156 C 162.613281 280.082031 162.625 280.300781 162.675781 280.5625 C 162.988281 280.574219 163.300781 280.574219 163.625 280.574219 " fill-opacity="1" fill-rule="nonzero"/><path fill="rgb(26.669312%, 25.489807%, 25.878906%)" d="M 174.109375 280.503906 C 174.964844 278.023438 175.230469 275.359375 175.964844 272.820312 C 177.050781 269.046875 178.667969 265.433594 180.234375 261.832031 C 179.523438 261.894531 178.8125 261.941406 178.101562 261.988281 C 175.542969 267.589844 173.085938 273.636719 173.316406 279.683594 C 173.328125 279.757812 173.398438 280.15625 173.507812 280.515625 C 173.714844 280.515625 173.90625 280.503906 174.109375 280.503906 " fill-opacity="1" fill-rule="nonzero"/><path fill="rgb(26.669312%, 25.489807%, 25.878906%)" d="M 187.65625 280.058594 C 188.34375 276.792969 188.320312 273.46875 189.199219 270.191406 C 190.113281 266.796875 191.535156 263.542969 193.128906 260.410156 C 192.332031 260.519531 191.535156 260.617188 190.730469 260.722656 C 189.414062 263.722656 188.269531 266.796875 187.476562 270 C 186.726562 272.964844 185.859375 277.035156 186.96875 280.082031 C 187.199219 280.070312 187.425781 280.058594 187.65625 280.058594 " fill-opacity="1" fill-rule="nonzero"/><path fill="rgb(26.669312%, 25.489807%, 25.878906%)" d="M 198.070312 279.769531 C 199.214844 277.09375 199.683594 274.011719 200.46875 271.242188 C 201.707031 266.867188 203.285156 262.617188 205.191406 258.496094 C 204.417969 258.628906 203.625 258.761719 202.816406 258.90625 C 199.996094 265.265625 197.636719 272.242188 196.925781 278.949219 C 196.925781 279.035156 196.9375 279.394531 196.984375 279.792969 C 197.347656 279.78125 197.707031 279.78125 198.070312 279.769531 " fill-opacity="1" fill-rule="nonzero"/><path fill="rgb(26.669312%, 25.489807%, 25.878906%)" d="M 209.144531 279.613281 C 210.6875 276.457031 211.289062 272.710938 212.335938 269.363281 C 213.820312 264.628906 215.628906 260 217.617188 255.449219 C 217.6875 255.292969 217.710938 254.992188 217.699219 254.640625 C 217.542969 254.691406 217.386719 254.738281 217.230469 254.773438 C 216.820312 255.53125 216.15625 256.171875 215.207031 256.570312 C 212.15625 263.496094 209.253906 271 208.421875 278.335938 C 208.410156 278.457031 208.457031 279.117188 208.554688 279.625 C 208.746094 279.625 208.9375 279.625 209.144531 279.613281 " fill-opacity="1" fill-rule="nonzero"/><path fill="rgb(26.669312%, 25.489807%, 25.878906%)" d="M 218.449219 279.492188 C 219.761719 275.9375 220.265625 272.082031 221.328125 268.433594 C 222.847656 263.230469 224.859375 258.171875 226.882812 253.148438 C 227.003906 252.847656 226.957031 252.039062 226.835938 251.375 C 226.484375 251.519531 226.136719 251.679688 225.785156 251.808594 C 222.160156 260.230469 217.988281 269.445312 217.675781 278.625 C 217.664062 278.695312 217.722656 279.117188 217.808594 279.503906 C 218.015625 279.503906 218.230469 279.492188 218.449219 279.492188 " fill-opacity="1" fill-rule="nonzero"/><path fill="rgb(26.669312%, 25.489807%, 25.878906%)" d="M 227.59375 279.179688 C 227.644531 279.105469 227.703125 279.023438 227.75 278.867188 C 231.378906 268.167969 235.441406 257.4375 238.40625 246.535156 C 238.453125 246.378906 238.453125 246.050781 238.417969 245.667969 C 237.933594 245.957031 237.453125 246.222656 236.957031 246.5 C 233.691406 256.507812 228.472656 266.15625 226.8125 276.589844 C 226.761719 276.960938 226.957031 278.734375 227.269531 279.214844 C 227.378906 279.203125 227.484375 279.191406 227.59375 279.179688 " fill-opacity="1" fill-rule="nonzero"/><path fill="rgb(26.669312%, 25.489807%, 25.878906%)" d="M 239.742188 277.144531 C 243.394531 262.230469 248.5625 248.339844 254.023438 233.921875 C 254.277344 233.261719 253.792969 230.40625 253.492188 231.164062 C 247.601562 245.980469 239.332031 261.277344 238.464844 277.492188 C 238.886719 277.382812 239.320312 277.261719 239.742188 277.144531 " fill-opacity="1" fill-rule="nonzero"/><path fill="rgb(26.669312%, 25.489807%, 25.878906%)" d="M 246.625 274.9375 C 246.671875 274.925781 246.71875 274.914062 246.769531 274.890625 C 246.769531 274.878906 246.78125 274.890625 246.792969 274.867188 C 253.277344 263.785156 256.925781 250.246094 261.15625 238.152344 C 261.386719 237.511719 260.90625 234.800781 260.652344 235.5 C 256.082031 248.101562 250.203125 260.398438 246.382812 273.214844 C 246.308594 273.457031 246.40625 274.78125 246.625 274.9375 " fill-opacity="1" fill-rule="nonzero"/><path fill="rgb(26.669312%, 25.489807%, 25.878906%)" d="M 178.507812 361.945312 C 179.0625 360.511719 179.28125 358.683594 179.605469 357.511719 C 180.351562 354.9375 181.125 352.382812 181.945312 349.839844 C 181.339844 349.839844 180.75 349.839844 180.160156 349.839844 C 178.835938 353.539062 177.496094 357.429688 177.113281 361.234375 C 177.570312 361.476562 178.039062 361.707031 178.507812 361.945312 " fill-opacity="1" fill-rule="nonzero"/><path fill="rgb(26.669312%, 25.489807%, 25.878906%)" d="M 184.171875 364.441406 C 184.390625 364.523438 184.632812 364.609375 184.847656 364.691406 C 186.03125 362.945312 186.269531 359.683594 186.992188 357.789062 C 188.03125 355.09375 189.402344 352.527344 190.800781 349.996094 C 189.957031 349.972656 189.101562 349.949219 188.257812 349.925781 C 185.859375 354.394531 183.738281 359.355469 184.136719 364.257812 C 184.136719 364.269531 184.148438 364.355469 184.171875 364.441406 " fill-opacity="1" fill-rule="nonzero"/><path fill="rgb(26.669312%, 25.489807%, 25.878906%)" d="M 193.707031 365.730469 C 194.078125 364.164062 194.394531 362.574219 194.921875 361.089844 C 196.152344 357.683594 197.925781 354.453125 199.792969 351.359375 C 199.914062 351.164062 199.960938 350.742188 199.960938 350.261719 C 199.238281 350.238281 198.515625 350.214844 197.792969 350.191406 C 195.007812 354.949219 192.429688 360.378906 191.984375 365.875 C 192.5625 365.835938 193.140625 365.824219 193.707031 365.730469 " fill-opacity="1" fill-rule="nonzero"/><path fill="rgb(26.669312%, 25.489807%, 25.878906%)" d="M 202.734375 362.464844 C 202.902344 361.441406 203.082031 360.417969 203.359375 359.417969 C 204.238281 356.285156 205.722656 353.296875 207.457031 350.550781 C 206.613281 350.515625 205.769531 350.492188 204.925781 350.453125 C 202.816406 354.40625 201.25 358.875 201.140625 363.246094 C 201.671875 362.996094 202.203125 362.730469 202.734375 362.464844 " fill-opacity="1" fill-rule="nonzero"/></svg>