<?xml version="1.0" encoding="UTF-8"?><svg xmlns="http://www.w3.org/2000/svg" xmlns:xlink="http://www.w3.org/1999/xlink" width="375" zoomAndPan="magnify" viewBox="0 0 375 374.999991" height="374.999991" preserveAspectRatio="xMidYMid meet" version="1.0"><defs><clipPath id="clip-0"><path d="M 79 5.125 L 296 5.125 L 296 261 L 79 261 Z M 79 5.125 " clip-rule="nonzero"/></clipPath><clipPath id="clip-1"><path d="M 131 245 L 245 245 L 245 369.625 L 131 369.625 Z M 131 245 " clip-rule="nonzero"/></clipPath></defs><g clip-path="url(#clip-0)"><path fill="rgb(19.999695%, 19.999695%, 19.999695%)" d="M 203.5625 236.042969 C 201.847656 241.132812 202.703125 246.292969 202.578125 252.058594 C 210.902344 251.308594 218.777344 252.015625 226.175781 248.519531 C 223.214844 238.527344 223.855469 228.660156 225.976562 218.871094 C 229.351562 203.277344 237.503906 189.992188 246.828125 177.355469 C 254.847656 166.484375 263.199219 155.851562 271.089844 144.882812 C 278.375 134.761719 284.707031 124.085938 288.203125 111.929688 C 294.085938 91.464844 290.101562 72.761719 278.347656 55.417969 C 267.316406 39.144531 252.1875 27.703125 234.683594 19.238281 C 229.492188 16.726562 224.066406 14.613281 218.597656 12.761719 C 213.320312 10.972656 207.847656 9.757812 202.429688 7.90625 C 205.484375 7.089844 208.636719 7.101562 211.777344 7.539062 C 234.96875 10.773438 255.175781 20.273438 271.496094 37.121094 C 288.980469 55.175781 297.667969 76.8125 295.421875 102.128906 C 293.894531 119.316406 286.839844 134.621094 277.210938 148.667969 C 269.480469 159.945312 261.050781 170.746094 252.988281 181.800781 C 246.257812 191.035156 239.996094 200.589844 236.191406 211.433594 C 234.46875 216.355469 233.578125 221.578125 232.464844 226.699219 C 231.980469 228.929688 231.964844 231.046875 233.832031 233.058594 C 234.707031 234 234.203125 236.109375 234.648438 237.589844 C 235.140625 239.234375 236.535156 240.765625 236.566406 242.359375 C 236.59375 244.128906 235.851562 246.125 234.863281 247.652344 C 232.46875 251.351562 228.550781 253.164062 224.617188 254.710938 C 214.371094 258.746094 203.628906 260.234375 192.691406 260.613281 C 188.128906 260.773438 183.554688 261.066406 178.996094 260.921875 C 167.628906 260.550781 156.683594 258.226562 146.746094 252.496094 C 144.40625 251.152344 142.347656 248.976562 140.796875 246.742188 C 139.824219 245.351562 139.546875 243.042969 139.859375 241.304688 C 140.175781 239.523438 142.152344 238.007812 142.355469 236.253906 C 142.527344 234.765625 141.316406 233.425781 143.003906 231.746094 C 143.945312 230.804688 143.761719 228.429688 143.613281 226.75 C 142.734375 216.769531 138.820312 207.789062 134.132812 199.101562 C 127.945312 187.621094 119.894531 177.414062 112 167.109375 C 103.773438 156.375 95.8125 145.464844 89.847656 133.269531 C 81.917969 117.0625 77.4375 100.101562 79.648438 81.902344 C 80.132812 77.945312 80.890625 73.8125 82.558594 70.246094 C 92.75 48.441406 106.988281 30.152344 128.882812 18.804688 C 137.648438 14.265625 146.792969 10.863281 156.527344 8.953125 C 164.449219 7.390625 172.246094 5.085938 180.421875 5.324219 C 184.949219 5.460938 189.46875 5.785156 193.980469 6.835938 C 189.226562 7.28125 184.480469 7.804688 179.71875 8.15625 C 164.195312 9.304688 149.886719 14.429688 136.3125 21.679688 C 121.09375 29.8125 107.996094 40.503906 98.085938 54.792969 C 87.082031 70.664062 82.527344 88.003906 86.511719 107.15625 C 88.796875 118.125 93.535156 128.132812 99.863281 137.261719 C 107.648438 148.507812 115.894531 159.441406 124.070312 170.410156 C 132.570312 181.824219 140.84375 193.335938 146.222656 206.667969 C 150.921875 218.308594 152.566406 230.332031 151.339844 242.765625 C 151.160156 244.585938 150.367188 246.355469 149.710938 248.667969 C 151.996094 249.347656 154.261719 250.335938 156.613281 250.65625 C 161.824219 251.363281 167.074219 251.84375 172.320312 252.210938 C 176.167969 252.480469 177.289062 251.375 176.773438 247.695312 C 174.820312 233.804688 172.714844 219.929688 170.707031 206.046875 C 169.078125 194.769531 167.339844 183.5 165.9375 172.191406 C 164.46875 160.363281 163.304688 148.496094 162.097656 136.636719 C 161.832031 134.023438 161.769531 131.367188 161.902344 128.75 C 162.140625 124.101562 161.46875 119.660156 159.550781 115.414062 C 159.480469 115.253906 159.441406 115.082031 159.375 114.917969 C 158.476562 112.703125 157.894531 110.464844 160.09375 108.683594 C 160.683594 108.203125 161.839844 107.835938 162.460938 108.089844 C 164.914062 109.097656 165.40625 111.394531 165.53125 113.730469 C 165.609375 115.105469 165.414062 116.488281 165.320312 118.210938 C 174.75 122.570312 184.410156 125.359375 194.816406 124.523438 C 199.351562 124.160156 203.886719 123.425781 208.351562 122.519531 C 213.292969 121.519531 214.644531 119.511719 214.609375 114.429688 C 214.601562 113.035156 214.417969 111.5 214.933594 110.292969 C 215.316406 109.394531 216.726562 108.375 217.625 108.425781 C 218.449219 108.472656 219.917969 109.953125 219.84375 110.671875 C 219.546875 113.589844 218.769531 116.460938 218.160156 119.347656 C 217.664062 121.707031 216.6875 124.078125 216.734375 126.429688 C 216.957031 137.730469 214.964844 148.792969 213.496094 159.914062 C 212.773438 165.382812 211.863281 170.824219 210.949219 176.839844 C 212.5625 176.484375 213.734375 176.394531 214.765625 175.96875 C 218.660156 174.375 222.421875 172.394531 226.40625 171.066406 C 231.738281 169.292969 234.660156 165.574219 236.492188 159.914062 C 231.382812 161.835938 226.617188 163.628906 221.851562 165.417969 C 221.734375 165.121094 221.617188 164.816406 221.503906 164.519531 C 225.289062 162.765625 228.957031 160.660156 232.886719 159.351562 C 237.683594 157.753906 240.4375 154.574219 242.09375 150.070312 C 242.574219 148.761719 243.175781 147.496094 244.132812 145.257812 C 239.121094 146.878906 234.816406 148.273438 230.511719 149.667969 C 230.378906 149.339844 230.238281 149.015625 230.101562 148.6875 C 232.621094 147.585938 235.042969 146.074219 237.679688 145.453125 C 245.429688 143.617188 248.074219 138.050781 249.144531 130.496094 C 242.6875 132.664062 236.503906 134.734375 230.320312 136.800781 C 230.242188 136.585938 230.160156 136.367188 230.078125 136.148438 C 235.058594 134.011719 239.972656 131.6875 245.042969 129.800781 C 249.085938 128.300781 251.5 125.933594 251.75 121.480469 C 251.867188 119.433594 252.433594 117.410156 252.933594 114.625 C 247.628906 116.605469 243.011719 118.328125 238.394531 120.050781 C 238.277344 119.773438 238.15625 119.488281 238.039062 119.210938 C 241.363281 117.550781 244.691406 115.917969 247.996094 114.226562 C 254.550781 110.875 254.757812 110.433594 253.953125 101.957031 C 248.597656 104.550781 243.335938 107.109375 238.078125 109.664062 C 237.925781 109.367188 237.773438 109.070312 237.621094 108.773438 C 243.222656 105.40625 248.820312 102.035156 254.570312 98.574219 C 254.570312 95.191406 254.570312 91.917969 254.570312 88.226562 C 249.015625 90.460938 243.730469 92.589844 238.445312 94.71875 C 238.34375 94.496094 238.242188 94.269531 238.136719 94.046875 C 244.128906 90.808594 250.128906 87.59375 256.09375 84.316406 C 258.402344 83.050781 260.664062 81.683594 262.886719 80.277344 C 266.671875 77.890625 266.71875 77.738281 265.773438 73.507812 C 265.554688 72.515625 265.191406 71.550781 264.800781 70.261719 C 259.480469 73.320312 254.386719 76.246094 249.289062 79.175781 C 249.074219 78.839844 248.851562 78.507812 248.640625 78.171875 C 253.777344 74.613281 258.914062 71.054688 264.285156 67.332031 C 263.527344 65.316406 262.875 63.582031 262.070312 61.453125 C 256.023438 65.226562 251.199219 70.121094 244.554688 71.96875 C 249.917969 67.839844 255.28125 63.707031 260.796875 59.457031 C 260.148438 57.96875 259.613281 56.730469 258.828125 54.921875 C 260.300781 55.878906 261.34375 56.558594 262.761719 57.480469 C 264.789062 55.316406 266.871094 53.089844 269.378906 50.410156 C 268.839844 54.695312 265.617188 56.722656 263.765625 60.007812 C 264.425781 61.519531 265.179688 63.238281 266.089844 65.3125 C 269.742188 63.886719 271.78125 61.054688 274.746094 57.8125 C 274.347656 63.515625 269.851562 65.292969 267.292969 68.769531 C 267.710938 70.746094 268.175781 72.949219 268.828125 76.054688 C 271.945312 73.363281 274.652344 71.027344 277.589844 68.488281 C 277.71875 71.214844 275.898438 72.757812 274.269531 74.046875 C 269.847656 77.5625 267.890625 81.773438 269.855469 87.621094 C 273.554688 86.53125 275.78125 82.945312 279.253906 81.160156 C 278.132812 84.371094 275.933594 86.917969 273.261719 88.558594 C 267.921875 91.839844 268.066406 96.625 268.40625 102.257812 C 273.886719 99.796875 277.917969 96.03125 282.855469 91.648438 C 282.324219 95.425781 280.628906 97.167969 278.828125 98.660156 C 276.128906 100.894531 273.355469 103.097656 270.363281 104.894531 C 268.023438 106.296875 266.765625 108.050781 266.390625 110.664062 C 266.046875 113.03125 265.535156 115.375 265.941406 118.394531 C 271.035156 114.300781 276.128906 110.207031 281.226562 106.117188 C 281.421875 106.285156 281.613281 106.449219 281.808594 106.617188 C 280.074219 108.652344 278.453125 110.789062 276.597656 112.699219 C 271.03125 118.4375 264.511719 122.894531 257.257812 126.179688 C 253.964844 127.667969 251.738281 129.566406 251.277344 133.347656 C 251.054688 135.210938 250.207031 137 249.398438 139.59375 C 258.558594 136.058594 266.226562 131.265625 273.394531 125.570312 C 273.617188 125.828125 273.832031 126.085938 274.050781 126.339844 C 272.53125 127.902344 271.230469 129.792969 269.453125 130.957031 C 264.1875 134.414062 258.949219 138.019531 253.289062 140.710938 C 249.339844 142.589844 246.5625 144.828125 245.359375 149.011719 C 244.941406 150.453125 244.28125 151.828125 243.277344 154.382812 C 247.894531 152.050781 251.503906 150.21875 255.113281 148.394531 C 255.289062 148.726562 255.464844 149.0625 255.636719 149.390625 C 252.695312 151.132812 249.914062 153.277344 246.773438 154.523438 C 241.925781 156.453125 239.226562 159.925781 237.472656 165.519531 C 240.847656 164.207031 243.742188 163.082031 247.695312 161.542969 C 245.164062 166.003906 241.695312 167.347656 238.488281 168.628906 C 234.589844 170.183594 232 172.589844 230.683594 177.046875 C 232.699219 176.609375 234.53125 176.210938 237.046875 175.664062 C 235.339844 179 232.75 180.160156 230.308594 181.21875 C 227.027344 182.640625 225.585938 185.078125 224.894531 188.953125 C 227.292969 187.960938 229.242188 187.15625 231.1875 186.34375 C 227.515625 191.15625 220.183594 193.152344 221.339844 201.273438 C 223.429688 200.160156 225.464844 199.078125 228.207031 197.621094 C 227.9375 201.8125 225.320312 203.175781 223.097656 204.539062 C 220.308594 206.253906 218.519531 208.28125 218.890625 212 C 219.699219 212 220.550781 212 221.6875 212 C 221.132812 216.597656 215.09375 218.71875 217.023438 223.898438 C 217.800781 223.792969 218.613281 223.6875 219.425781 223.578125 C 219.519531 223.964844 219.761719 224.433594 219.644531 224.554688 C 218.195312 226.054688 216.851562 227.738281 215.164062 228.917969 C 212.253906 230.957031 210.351562 233.453125 209.816406 237.191406 C 209.527344 236.234375 209.238281 235.273438 208.933594 234.277344 C 206.992188 234.921875 205.203125 235.519531 203.4375 236.105469 C 204.5 235.167969 205.457031 234.101562 206.609375 233.339844 C 209.882812 231.175781 210.105469 228.183594 209.492188 224.679688 C 202.148438 227.675781 201.425781 229.125 203.5625 236.042969 Z M 163.914062 120.230469 C 163.742188 122.792969 163.398438 124.433594 163.574219 126.015625 C 165.140625 140.113281 166.644531 154.222656 168.480469 168.28125 C 169.910156 179.222656 171.761719 190.105469 173.476562 201 C 175.117188 211.375 176.828125 221.738281 178.503906 232.105469 C 179.371094 237.460938 180.25 242.820312 181.09375 248.179688 C 181.550781 251.050781 183.046875 252.480469 186.101562 252.3125 C 188.898438 252.15625 191.714844 252.242188 194.523438 252.265625 C 196.90625 252.285156 198.074219 251.148438 198.109375 248.765625 C 198.160156 245.441406 198.121094 242.105469 198.335938 238.785156 C 199.308594 223.917969 201.320312 209.195312 204.058594 194.539062 C 207.496094 176.125 210.527344 157.640625 213.703125 139.175781 C 214.492188 134.558594 215.058594 129.910156 214.414062 124.515625 C 205.828125 127.128906 197.542969 128.074219 189.125 127.714844 C 180.453125 127.347656 172.25 125.273438 163.914062 120.230469 Z M 229.066406 173.0625 C 223.117188 174.792969 217.589844 176.269531 212.183594 178.105469 C 211.253906 178.425781 210.453125 180.210938 210.25 181.429688 C 208.0625 194.558594 205.996094 207.710938 203.933594 220.855469 C 203.730469 222.136719 203.78125 223.449219 203.703125 224.953125 C 210.621094 222.019531 211.09375 220.34375 210.039062 213.007812 C 209.402344 212.976562 208.765625 212.941406 207.230469 212.855469 C 212.773438 209.90625 211.089844 205.023438 212.199219 201.039062 C 211.3125 200.738281 210.703125 200.542969 210.105469 200.3125 C 210.082031 200.304688 210.15625 200.027344 210.222656 199.699219 C 214.703125 195.496094 222.292969 193.722656 222.375 185.234375 C 219.851562 185.980469 217.433594 186.691406 215.015625 187.40625 C 216.667969 185.398438 218.613281 183.992188 220.777344 183.144531 C 225.292969 181.375 227.261719 177.703125 229.066406 173.0625 Z M 253.582031 125.121094 C 264.351562 120.390625 266.085938 117.648438 264.460938 108.933594 C 258.027344 110.394531 254.136719 114 254.335938 121.054688 C 254.367188 122.214844 253.917969 123.382812 253.582031 125.121094 Z M 266.113281 81.320312 C 262.273438 83.566406 258.867188 85.558594 255.335938 87.625 C 255.5625 89.953125 255.730469 92.015625 255.980469 94.074219 C 256.078125 94.886719 256.351562 95.675781 256.566406 96.550781 C 267.363281 91.0625 267.78125 91.015625 266.113281 81.320312 Z M 265.914062 95.179688 C 256.144531 99.769531 254.957031 99.527344 256.777344 108.980469 C 266.226562 105.175781 266.925781 104.121094 265.914062 95.179688 Z M 218.953125 195.925781 C 216.582031 197.441406 215.054688 198.417969 213.890625 199.160156 C 213.890625 202.03125 213.890625 204.335938 213.890625 207.070312 C 218.808594 204.730469 217.863281 200.476562 218.953125 195.925781 Z M 211.742188 227.8125 C 215.976562 225.703125 215.976562 225.703125 214.539062 220.945312 C 211.304688 222.371094 212.574219 225.246094 211.742188 227.8125 Z M 215.875 210.046875 C 212.105469 211.617188 213.566406 214.609375 213.417969 218.046875 C 216.542969 215.535156 215.746094 212.691406 215.875 210.046875 Z M 215.875 210.046875 " fill-opacity="1" fill-rule="evenodd"/></g><g clip-path="url(#clip-1)"><path fill="rgb(19.999695%, 19.999695%, 19.999695%)" d="M 132.527344 245.222656 C 134.894531 252.464844 140.277344 256.621094 146.871094 259.09375 C 153.25 261.476562 159.914062 263.105469 166.453125 265.050781 C 167.125 265.246094 167.980469 265.113281 168.492188 265.484375 C 169.542969 266.253906 171.039062 267.148438 171.230469 268.195312 C 171.59375 270.207031 169.660156 270.652344 168.089844 270.9375 C 162.683594 271.925781 157.5625 270.621094 152.707031 268.46875 C 148.402344 266.5625 144.316406 264.164062 140.089844 261.960938 C 136.308594 264.769531 135.59375 270.003906 138.808594 273.601562 C 142.25 277.445312 146.390625 279.789062 151.863281 278.613281 C 153.546875 278.246094 155.285156 278.144531 157.15625 278.671875 C 155.054688 279.292969 152.957031 279.914062 150.859375 280.53125 C 150.882812 280.757812 150.90625 280.984375 150.929688 281.207031 C 156.457031 280.539062 161.980469 279.875 167.503906 279.207031 C 167.578125 279.355469 167.65625 279.496094 167.730469 279.644531 C 165.933594 280.578125 164.128906 281.515625 161.832031 282.707031 C 167.550781 284.691406 171.679688 281.042969 177.035156 281.078125 C 175.550781 281.808594 174.066406 282.539062 172.582031 283.273438 C 177.449219 285.671875 180.703125 282.804688 184.886719 281.953125 C 184.117188 283.191406 183.636719 283.96875 182.929688 285.105469 C 187.128906 286.234375 190.183594 283.304688 194.144531 282.167969 C 193.273438 283.460938 192.71875 284.28125 191.894531 285.5 C 197.082031 286.324219 200.394531 282.683594 205.195312 280.644531 C 204.09375 282.4375 203.441406 283.5 202.511719 285.003906 C 208.050781 285.140625 210.972656 281.027344 215.804688 278.078125 C 214.695312 280.28125 214.113281 281.445312 213.566406 282.527344 C 213.996094 282.914062 214.203125 283.273438 214.46875 283.320312 C 216.898438 283.769531 218.449219 282.34375 219.832031 280.675781 C 221.269531 278.941406 222.644531 277.15625 224.804688 275.699219 C 224.238281 277.507812 223.675781 279.316406 223.105469 281.148438 C 226.335938 281.304688 226.335938 281.304688 230.929688 273.195312 C 231.242188 274.75 231.472656 275.917969 231.71875 277.148438 C 234.503906 275.007812 234.503906 275.007812 236.496094 268.386719 C 237.210938 269.441406 237.71875 270.179688 238.222656 270.925781 C 238.433594 270.777344 238.878906 270.621094 238.894531 270.433594 C 239.300781 265.445312 239.230469 265.230469 236.160156 261.609375 C 233.988281 262.882812 231.789062 264.242188 229.523438 265.484375 C 221.660156 269.792969 213.621094 272.527344 204.335938 270.378906 C 200.523438 269.492188 196.316406 270.292969 192.292969 270.371094 C 189.488281 270.429688 186.683594 270.679688 183.882812 270.621094 C 182.796875 270.597656 181.726562 269.976562 179.730469 269.332031 C 181.371094 268.390625 182.117188 267.710938 182.972656 267.53125 C 184.332031 267.246094 185.777344 267.136719 187.164062 267.242188 C 197.648438 268.058594 207.78125 266.011719 217.714844 263.105469 C 223.394531 261.4375 229.136719 259.371094 234.1875 256.371094 C 237.90625 254.160156 240.550781 250.136719 243.890625 246.695312 C 244.738281 249.835938 243.5 252.625 241.710938 255.035156 C 240.113281 257.1875 240.113281 259.128906 241.179688 261.351562 C 244.199219 267.648438 243.625 273.488281 239.230469 279.054688 C 238.429688 280.070312 238.082031 282.117188 238.523438 283.324219 C 241.074219 290.378906 240.585938 297.007812 236.796875 303.519531 C 236.09375 304.722656 236.09375 306.558594 236.3125 308.023438 C 238.746094 324.277344 233.082031 336.917969 219.398438 345.929688 C 217.230469 347.355469 215.519531 348.8125 214.984375 351.460938 C 213.097656 360.824219 206.632812 366.125 198.019531 368.21875 C 192.34375 369.597656 186.15625 369.527344 180.261719 369.132812 C 172.941406 368.644531 167.25 364.535156 164.085938 357.988281 C 160.820312 351.238281 156.515625 345.882812 150.566406 341.109375 C 140.917969 333.371094 138.28125 322.289062 139.472656 310.300781 C 139.808594 306.902344 139.617188 303.972656 137.929688 300.753906 C 135.355469 295.832031 134.753906 290.386719 137.078125 284.984375 C 138.109375 282.585938 138.128906 280.539062 136.292969 278.195312 C 132.253906 273.046875 132.105469 267.207031 134.738281 261.351562 C 135.785156 259.019531 135.632812 257.230469 134.234375 255.019531 C 131.375 250.492188 131.328125 249.363281 132.527344 245.222656 Z M 231.8125 301.195312 C 232.199219 301.34375 232.585938 301.492188 232.972656 301.636719 C 233.832031 299.625 234.773438 297.640625 235.523438 295.589844 C 235.992188 294.308594 236.019531 292.863281 236.511719 291.597656 C 237.65625 288.667969 237.132812 285.910156 235.03125 283.875 C 233.042969 281.941406 230.71875 283.515625 228.703125 284.46875 C 222.574219 287.355469 216.011719 288.671875 209.386719 289.332031 C 198.359375 290.417969 187.277344 290.054688 176.304688 288.550781 C 167.292969 287.316406 158.332031 285.621094 149.398438 283.894531 C 140.894531 282.253906 137.957031 284.703125 138.785156 293.160156 C 139.191406 297.289062 141.015625 298.855469 145.128906 297.992188 C 147.484375 297.496094 149.695312 296.28125 151.960938 295.367188 C 152.945312 294.96875 153.898438 294.503906 155.632812 293.730469 C 152.804688 298.316406 148.90625 299.910156 143.933594 301.898438 C 151.109375 302.527344 156.203125 299.5 162.488281 297.828125 C 158.773438 302.621094 153.382812 303.050781 148.390625 306.203125 C 156.804688 308.988281 162.386719 303.796875 169.503906 301.492188 C 162.292969 310.449219 152.820312 309.546875 143.292969 310.214844 C 143.292969 313.84375 143.242188 317.140625 143.300781 320.4375 C 143.394531 325.628906 145.523438 329.921875 149.277344 333.449219 C 153.628906 337.542969 155.917969 337.824219 160.878906 334.382812 C 163.304688 332.703125 165.433594 330.59375 167.695312 328.675781 C 167.957031 328.9375 168.214844 329.195312 168.476562 329.453125 C 165.800781 332.570312 163.125 335.675781 160.46875 338.769531 C 165.191406 338.964844 165.257812 338.917969 177.203125 327.738281 C 175.898438 334.210938 170.507812 336.808594 166.46875 341.261719 C 171.097656 341.304688 174.378906 339.71875 177.277344 337.449219 C 180.195312 335.164062 182.84375 332.527344 186.332031 329.40625 C 184.382812 335.675781 179.597656 338.445312 175.371094 342.460938 C 184.992188 343.703125 189.835938 337.429688 195.75 331.625 C 194.921875 337.300781 190.671875 339.515625 187.96875 343.066406 C 194.425781 343.242188 194.425781 343.242188 205.902344 333.1875 C 204.089844 336.117188 202.269531 339.050781 200.347656 342.160156 C 204.582031 343.027344 207.363281 341.058594 209.472656 338.464844 C 211.59375 335.847656 213.09375 332.730469 215.035156 329.5625 C 216.714844 333.644531 213.710938 336.390625 212.734375 340.152344 C 214.28125 339.664062 215.210938 339.269531 216.179688 339.085938 C 220.230469 338.328125 222.203125 335.855469 222.484375 331.816406 C 222.566406 330.644531 222.980469 329.496094 223.246094 328.339844 C 223.464844 328.386719 223.683594 328.441406 223.902344 328.492188 C 224.074219 330.46875 224.242188 332.449219 224.453125 334.855469 C 228.5625 332.886719 230.28125 330.238281 229.75 326.234375 C 229.40625 323.621094 229.054688 321.003906 228.570312 317.359375 C 230.242188 319.253906 231.179688 320.324219 232.835938 322.203125 C 232.40625 316.867188 228.667969 314.921875 226.851562 311.597656 C 225.433594 312.042969 224.289062 312.394531 223.140625 312.757812 C 219.964844 313.75 216.855469 315.082031 213.609375 315.683594 C 204.097656 317.441406 194.480469 318.640625 184.808594 317.445312 C 176.636719 316.433594 168.523438 314.949219 160.402344 313.515625 C 159.320312 313.328125 158.394531 312.246094 157.394531 311.574219 C 164.78125 312.183594 170.296875 308.113281 176.542969 306.242188 C 174.726562 307.917969 172.910156 309.597656 170.53125 311.796875 C 177.289062 312.257812 181.113281 307.90625 186.246094 306.066406 C 184.699219 307.972656 183.148438 309.871094 181.128906 312.339844 C 186.773438 312.269531 189.890625 308.480469 194.273438 307.058594 C 193.121094 308.617188 191.96875 310.167969 190.554688 312.085938 C 196.289062 313.304688 198.652344 308.183594 203.175781 306.375 C 202.070312 308.445312 201.320312 309.84375 200.566406 311.242188 C 200.785156 311.527344 201.003906 311.808594 201.21875 312.09375 C 203.046875 311.28125 205.023438 310.6875 206.65625 309.582031 C 208.375 308.421875 209.757812 306.765625 211.320312 305.363281 C 211.453125 305.246094 211.851562 305.421875 212.15625 305.464844 C 211.589844 306.824219 211.023438 308.175781 210.410156 309.644531 C 216.667969 311.113281 218.140625 305.617188 222.117188 302.246094 C 221.089844 304.925781 220.394531 306.75 219.53125 309.003906 C 226.777344 308.808594 227.851562 302.652344 230.96875 298.484375 C 231.3125 299.589844 231.5625 300.394531 231.8125 301.195312 Z M 164.230469 350.363281 C 167.171875 357.257812 171.273438 361.484375 177.640625 362.992188 C 185.359375 364.828125 193.066406 363.847656 200.289062 360.886719 C 203.199219 359.695312 205.511719 356.933594 207.882812 354.660156 C 208.566406 354.015625 208.496094 352.585938 208.984375 350.683594 C 193.882812 354.578125 179.507812 350.976562 164.230469 350.363281 Z M 231.464844 313.847656 C 232.839844 310.769531 231.785156 310.171875 229.585938 310.476562 C 230.28125 311.722656 230.871094 312.789062 231.464844 313.847656 Z M 231.464844 313.847656 " fill-opacity="1" fill-rule="evenodd"/></g><path fill="rgb(19.999695%, 19.999695%, 19.999695%)" d="M 107.019531 128.257812 C 101.269531 122.117188 98.984375 114.238281 95.710938 106.769531 C 93.398438 101.503906 95.628906 95.882812 93.140625 90.882812 C 92.996094 90.59375 92.859375 90.050781 93.007812 89.902344 C 96.308594 86.503906 93.980469 83.21875 92.285156 79.5 C 93.519531 79.96875 94.113281 80.199219 94.828125 80.476562 C 97.164062 77.46875 93.144531 75.105469 93.910156 71.976562 C 97.839844 76.328125 101.648438 80.546875 105.453125 84.765625 C 105.347656 84.960938 105.238281 85.160156 105.128906 85.363281 C 102.640625 83.679688 100.152344 82 97.652344 80.316406 C 96.644531 83.523438 96.644531 83.523438 106.683594 93.230469 C 104.277344 93.113281 103.007812 91.722656 101.613281 90.667969 C 100.109375 89.523438 98.683594 88.269531 96.957031 86.84375 C 95.691406 90.363281 96.285156 92.773438 99.183594 94.71875 C 103.394531 97.546875 107.480469 100.566406 111.503906 104.042969 C 109.8125 103.617188 108.125 103.195312 106.140625 102.695312 C 105.386719 107.109375 107.058594 110.066406 112.074219 112.097656 C 110.121094 112.097656 109.199219 112.097656 108.273438 112.097656 C 108.503906 116.53125 108.503906 116.53125 113.351562 120.03125 C 112.335938 120.03125 111.59375 120.03125 110.382812 120.03125 C 111.164062 124.066406 112.125 127.730469 116.957031 129.644531 C 114.144531 130.691406 115.132812 132.089844 115.953125 133.5625 C 118.910156 138.863281 121.882812 144.15625 124.730469 149.515625 C 126.34375 152.5625 127.730469 155.730469 128.46875 159.289062 C 127.765625 158.289062 126.996094 157.332031 126.378906 156.28125 C 123.183594 150.839844 120.128906 145.320312 116.820312 139.945312 C 115.210938 137.328125 113.160156 134.976562 111.308594 132.507812 L 111.160156 132.636719 C 112.34375 129.125 111.707031 128.183594 107.269531 126.890625 C 107.148438 127.382812 107.027344 127.875 106.90625 128.367188 Z M 96.9375 96.289062 C 96.699219 102.972656 97.339844 103.867188 104.371094 107.023438 C 105.449219 102.136719 105.445312 102.144531 101.691406 99.597656 C 100.140625 98.542969 98.613281 97.457031 96.9375 96.289062 Z M 108.828125 124.71875 C 107.324219 117.472656 106.5 116.460938 101.675781 115.910156 C 103.230469 119.441406 104.085938 123.34375 108.828125 124.71875 Z M 105.628906 114.683594 C 106.75 108.917969 101.792969 108.925781 98.691406 106.363281 C 98.859375 111.511719 102.347656 112.800781 105.628906 114.683594 Z M 105.628906 114.683594 " fill-opacity="1" fill-rule="evenodd"/><path fill="rgb(19.999695%, 19.999695%, 19.999695%)" d="M 165.351562 211.722656 C 168.082031 220.082031 167.625 228.570312 165.507812 237.140625 C 165.011719 228.644531 164.519531 220.152344 164.023438 211.652344 C 164.46875 211.679688 164.910156 211.703125 165.351562 211.722656 Z M 165.351562 211.722656 " fill-opacity="1" fill-rule="evenodd"/><path fill="rgb(19.999695%, 19.999695%, 19.999695%)" d="M 262.21875 43.007812 C 262.21875 44.042969 262.484375 45.164062 262.175781 46.101562 C 260.703125 50.542969 253.417969 57.585938 245.105469 62.488281 C 250.613281 55.984375 258.285156 51.285156 262.21875 43.007812 Z M 262.21875 43.007812 " fill-opacity="1" fill-rule="evenodd"/><path fill="rgb(19.999695%, 19.999695%, 19.999695%)" d="M 158.074219 209.984375 C 161.71875 217.507812 162.121094 225.574219 161.121094 233.828125 C 160.105469 225.878906 159.089844 217.933594 158.074219 209.984375 Z M 158.074219 209.984375 " fill-opacity="1" fill-rule="evenodd"/><path fill="rgb(19.999695%, 19.999695%, 19.999695%)" d="M 104.917969 76.652344 C 99.605469 74.671875 97.761719 70.382812 96.796875 64.820312 C 99.6875 69.113281 102.257812 72.925781 104.828125 76.742188 Z M 104.917969 76.652344 " fill-opacity="1" fill-rule="evenodd"/><path fill="rgb(19.999695%, 19.999695%, 19.999695%)" d="M 216.75 239.097656 C 214.015625 240.824219 211.28125 242.554688 208.546875 244.28125 C 208.335938 243.976562 208.128906 243.671875 207.921875 243.367188 C 210.628906 241.621094 213.332031 239.871094 216.039062 238.125 C 216.277344 238.449219 216.511719 238.773438 216.75 239.097656 Z M 216.75 239.097656 " fill-opacity="1" fill-rule="evenodd"/><path fill="rgb(19.999695%, 19.999695%, 19.999695%)" d="M 111.308594 132.507812 C 108.875 132.101562 106.992188 131.136719 107.019531 128.257812 L 106.90625 128.367188 C 108.324219 129.789062 109.742188 131.210938 111.160156 132.636719 Z M 111.308594 132.507812 " fill-opacity="1" fill-rule="evenodd"/><path fill="rgb(19.999695%, 19.999695%, 19.999695%)" d="M 104.828125 76.742188 C 106.082031 77.394531 107.335938 78.042969 108.585938 78.695312 C 108.355469 79.03125 108.125 79.359375 107.890625 79.691406 C 106.898438 78.675781 105.90625 77.664062 104.917969 76.652344 Z M 104.828125 76.742188 " fill-opacity="1" fill-rule="evenodd"/></svg>