<?xml version="1.0" encoding="UTF-8"?><svg xmlns="http://www.w3.org/2000/svg" xmlns:xlink="http://www.w3.org/1999/xlink" width="375" zoomAndPan="magnify" viewBox="0 0 375 374.999991" height="374.999991" preserveAspectRatio="xMidYMid meet" version="1.0"><path fill="rgb(0%, 0%, 0%)" d="M 325.222656 178.597656 C 323.675781 176.699219 322.050781 173.898438 320.867188 170.832031 C 319.292969 171.363281 317.570312 171.582031 315.84375 171.5 C 314.792969 176.785156 313.023438 182.304688 311 187.253906 C 309.066406 191.996094 306.160156 195.855469 302.980469 199.8125 L 323.816406 202.523438 C 322.640625 195.042969 322.558594 186.28125 325.894531 179.296875 C 325.652344 179.078125 325.425781 178.847656 325.222656 178.597656 " fill-opacity="1" fill-rule="nonzero"/><path fill="rgb(0%, 0%, 0%)" d="M 272.046875 222.867188 C 271.746094 224.488281 271.445312 226.617188 271.140625 229.25 L 271.140625 230.3125 C 271.035156 230.617188 270.9375 230.972656 270.835938 231.378906 C 270.226562 233.503906 269.109375 236.292969 267.492188 239.734375 C 265.871094 243.28125 264.09375 246.316406 262.171875 248.851562 C 260.042969 251.6875 258.167969 253.363281 256.550781 253.867188 C 255.234375 254.273438 253.8125 253.613281 252.292969 251.890625 C 250.773438 250.171875 250.117188 246.929688 250.324219 242.167969 C 250.519531 236.996094 251.683594 231.882812 253.8125 226.820312 C 255.839844 221.652344 258.269531 217.953125 261.109375 215.722656 C 263.640625 213.800781 266.222656 213.597656 268.855469 215.117188 C 270.582031 216.03125 271.386719 216.589844 271.289062 216.789062 C 271.386719 216.992188 271.492188 217.445312 271.589844 218.15625 C 271.792969 219.980469 271.949219 221.246094 272.046875 221.957031 C 272.148438 221.957031 272.203125 222.007812 272.203125 222.109375 C 272.097656 222.3125 272.046875 222.5625 272.046875 222.867188 Z M 178.902344 225.144531 C 178.800781 225.046875 178.75 224.941406 178.75 224.84375 C 178.34375 223.625 177.886719 222.5625 177.382812 221.652344 C 176.265625 214.460938 175.863281 206.609375 176.167969 198.097656 C 176.570312 186.246094 178.191406 177.941406 181.023438 173.175781 C 182.246094 171.152344 183.40625 170.1875 184.527344 170.289062 C 185.335938 170.289062 185.941406 171.304688 186.347656 173.332031 C 186.753906 174.648438 186.851562 176.671875 186.652344 179.40625 C 186.652344 180.21875 186.597656 181.433594 186.5 183.054688 C 186.398438 184.675781 186.347656 185.789062 186.347656 186.394531 L 186.347656 187.152344 C 184.222656 201.847656 181.738281 214.507812 178.902344 225.144531 Z M 169.023438 246.113281 C 166.691406 249.359375 163.910156 251.640625 160.667969 252.957031 C 157.628906 254.167969 155.296875 253.667969 153.679688 251.433594 C 151.550781 248.601562 150.789062 244.445312 151.394531 238.972656 C 151.902344 233.503906 153.523438 228.542969 156.261719 224.082031 C 158.691406 220.132812 161.121094 218.15625 163.554688 218.15625 C 165.679688 218.15625 167.90625 219.726562 170.242188 222.867188 C 170.242188 223.269531 170.289062 223.675781 170.390625 224.082031 C 170.496094 224.289062 171.097656 227.121094 172.214844 232.589844 C 172.617188 234.820312 173.078125 236.898438 173.582031 238.820312 C 172.0625 241.558594 170.542969 243.992188 169.023438 246.113281 Z M 120.410156 242.390625 C 119.101562 241.015625 117.902344 239.542969 116.816406 237.976562 C 114.511719 234.734375 112.148438 229.988281 111.484375 227.738281 C 111.117188 226.484375 110.066406 218.460938 110.066406 218.460938 L 110.066406 218.003906 C 109.761719 214.765625 110.066406 210.003906 110.976562 203.71875 C 111.890625 197.441406 113.257812 191.511719 115.078125 185.941406 C 117.207031 179.558594 119.6875 174.902344 122.523438 171.960938 C 125.15625 169.222656 128.046875 168.363281 131.1875 169.378906 C 133.417969 170.085938 134.9375 172.265625 135.746094 175.910156 C 136.453125 178.949219 136.65625 182.800781 136.355469 187.460938 C 136.152344 191.3125 135.265625 196.832031 133.695312 204.023438 C 132.121094 211.21875 130.125 218.261719 127.691406 225.144531 C 125.375 232.097656 122.949219 237.835938 120.410156 242.390625 Z M 210.746094 233.449219 C 211.039062 232.355469 211.3125 231.21875 211.582031 230.0625 C 212.777344 225.90625 214.542969 222.28125 216.890625 219.21875 C 219.828125 215.269531 222.664062 213.800781 225.398438 214.8125 C 227.726562 215.523438 228.945312 217.195312 229.042969 219.828125 C 229.25 222.867188 228.234375 226.109375 226.011719 229.554688 C 223.675781 233.097656 220.941406 235.429688 217.800781 236.542969 C 215.269531 237.355469 212.785156 237.050781 210.355469 235.632812 C 210.472656 234.886719 210.601562 234.164062 210.746094 233.449219 Z M 339.148438 110.71875 C 316.632812 104.40625 293.261719 117.542969 286.945312 140.058594 C 282.496094 155.945312 287.734375 172.257812 299.113281 182.703125 L 296.332031 192.609375 L 296.335938 192.609375 L 289.800781 215.910156 C 289.464844 217.121094 288.808594 219.414062 291.667969 220.214844 L 303.019531 223.402344 C 302.761719 224.09375 301.707031 227.351562 299.855469 233.203125 C 298.4375 238.0625 297.070312 241.964844 295.753906 244.902344 C 293.933594 248.851562 292.109375 251.640625 290.285156 253.257812 C 288.558594 254.777344 286.6875 255.285156 284.664062 254.777344 C 282.433594 254.167969 280.761719 252.496094 279.644531 249.761719 C 278.835938 247.332031 278.433594 244.089844 278.433594 240.039062 C 278.433594 239.734375 278.53125 238.621094 278.738281 236.695312 C 278.835938 234.972656 278.988281 233.25 279.191406 231.523438 C 279.191406 231.429688 279.496094 229.757812 280.101562 226.515625 L 280.257812 225.757812 C 280.761719 224.742188 281.015625 224.132812 281.015625 223.933594 C 281.417969 222.714844 281.570312 221.652344 281.46875 220.738281 C 281.371094 219.523438 280.910156 218.511719 280.101562 217.703125 C 280 217.597656 279.898438 217.546875 279.796875 217.546875 L 279.796875 217.089844 C 279.59375 215.777344 279.34375 214.660156 279.039062 213.75 C 278.128906 211.726562 276.050781 209.75 272.808594 207.824219 C 267.035156 204.683594 261.460938 205.140625 256.089844 209.191406 C 252.234375 212.257812 249.011719 216.980469 246.410156 223.328125 C 245.855469 223.757812 245.429688 224.308594 245.15625 224.996094 C 244.445312 226.917969 243.632812 229.25 242.722656 231.984375 C 241.8125 234.722656 240.953125 237.125 240.140625 239.199219 C 239.328125 241.28125 238.417969 243.28125 237.402344 245.203125 C 234.570312 250.578125 230.617188 253.867188 225.550781 255.082031 C 219.371094 256.5 215.011719 255.335938 212.484375 251.585938 C 211.269531 249.761719 210.511719 247.382812 210.207031 244.445312 C 213.546875 245.460938 216.941406 245.410156 220.386719 244.292969 C 225.347656 242.671875 229.503906 239.28125 232.84375 234.113281 C 236.085938 229.148438 237.554688 224.234375 237.25 219.371094 C 236.949219 213.089844 233.90625 208.9375 228.132812 206.914062 C 224.6875 205.796875 221.449219 205.972656 218.410156 207.445312 C 215.371094 208.914062 212.6875 211.164062 210.355469 214.207031 C 208.835938 216.195312 207.527344 218.359375 206.40625 220.6875 L 206.179688 220.816406 C 205.214844 221.476562 204.632812 222.359375 204.433594 223.472656 C 201.796875 237.859375 197.539062 247.332031 191.667969 251.890625 C 190.753906 252.601562 189.992188 252.957031 189.386719 252.957031 C 188.980469 252.957031 188.578125 252.753906 188.167969 252.34375 C 186.554688 250.929688 184.976562 248.089844 183.460938 243.835938 L 182.246094 239.734375 C 188.933594 226.054688 194.550781 207.519531 199.109375 184.117188 C 199.414062 183.507812 199.570312 182.953125 199.570312 182.445312 C 199.570312 181.636719 199.644531 180.320312 199.792969 178.496094 C 199.949219 176.671875 200.019531 175.300781 200.019531 174.390625 C 200.222656 170.539062 199.972656 167.453125 199.261719 165.125 C 198.351562 162.386719 197.007812 160.210938 195.234375 158.589844 C 193.460938 156.96875 191.363281 156.105469 188.933594 156.007812 C 184.578125 155.699219 180.625 157.726562 177.082031 162.082031 C 171.707031 168.671875 168.667969 179.253906 167.960938 193.839844 C 167.757812 199.515625 167.90625 205.238281 168.414062 211.011719 C 166.792969 210.304688 165.175781 209.949219 163.554688 209.949219 C 158.085938 210.050781 153.324219 213.292969 149.265625 219.671875 C 145.925781 225.144531 143.898438 231.277344 143.191406 238.0625 C 142.566406 244.882812 143.492188 250.421875 145.960938 254.695312 C 142.957031 254.128906 140.058594 253.320312 137.589844 252.644531 C 133.71875 251.589844 130.074219 249.914062 126.777344 247.730469 C 129.839844 242.535156 132.730469 235.933594 135.445312 227.878906 C 137.972656 220.691406 140.050781 213.292969 141.675781 205.699219 C 143.292969 198.097656 144.257812 192.222656 144.5625 188.066406 C 144.964844 182.5 144.710938 177.835938 143.800781 174.089844 C 142.277344 167.402344 138.890625 163.199219 133.621094 161.476562 C 127.335938 159.453125 121.664062 161.074219 116.597656 166.335938 C 112.949219 170.085938 109.863281 175.761719 107.332031 183.359375 C 105.304688 189.4375 103.808594 195.894531 102.847656 202.730469 C 101.882812 209.570312 101.558594 214.863281 101.863281 218.613281 L 101.863281 218.765625 C 101.863281 218.765625 102.527344 224.109375 103.382812 226.820312 C 104.109375 229.128906 108.226562 239.980469 111.328125 243.984375 C 112.734375 245.800781 114.242188 247.527344 115.894531 249.109375 C 113.882812 251.460938 111.941406 252.855469 110.066406 253.257812 C 108.039062 253.667969 106.164062 252.90625 104.445312 250.980469 L 104.171875 251.203125 C 100.511719 247.246094 98.894531 240.726562 96.734375 236.0625 C 93.390625 228.867188 88.628906 221.6875 83.472656 215.667969 C 76.953125 208.050781 67.175781 205.632812 57.273438 204.882812 L 57.273438 200.601562 L 48.648438 200.601562 L 48.648438 192.875 L 33.90625 188.101562 L 33.90625 229.976562 L 48.648438 225.410156 L 48.648438 217.453125 L 57.273438 217.453125 L 57.273438 212.941406 C 66.285156 213.851562 74.644531 216.605469 80.664062 224.800781 C 84.847656 230.492188 88.589844 236.976562 91.382812 243.46875 C 93.527344 248.453125 95.539062 254.683594 99.980469 258.148438 C 100.238281 258.347656 100.496094 258.503906 100.761719 258.636719 C 103.972656 261.1875 107.683594 262.035156 111.890625 261.160156 C 115.480469 260.429688 118.933594 258.09375 122.261719 254.183594 C 126.304688 256.851562 130.773438 258.921875 135.480469 260.304688 C 144.398438 262.921875 157.253906 265.671875 165.484375 259.90625 C 165.652344 259.785156 165.792969 259.644531 165.941406 259.515625 C 169.726562 257.558594 172.988281 254.71875 175.710938 250.980469 L 176.773438 249.308594 C 178.496094 253.464844 180.46875 256.546875 182.703125 258.578125 C 184.730469 260.296875 186.953125 261.160156 189.386719 261.160156 C 191.816406 261.160156 194.300781 260.195312 196.835938 258.273438 C 199.21875 256.433594 201.378906 254.050781 203.3125 251.136719 C 203.949219 252.941406 204.757812 254.621094 205.796875 256.144531 C 210.355469 263.035156 217.546875 265.3125 227.375 262.984375 C 234.039062 261.46875 239.300781 257.742188 243.15625 251.789062 C 243.796875 253.863281 244.703125 255.628906 245.914062 257.054688 C 249.765625 261.617188 254.066406 263.1875 258.828125 261.769531 C 262.269531 260.757812 265.566406 258.121094 268.710938 253.867188 C 269.621094 252.753906 270.476562 251.488281 271.289062 250.070312 C 271.492188 250.980469 271.746094 251.789062 272.046875 252.496094 C 273.96875 257.871094 277.46875 261.257812 282.53125 262.679688 C 287.292969 263.996094 291.652344 262.929688 295.601562 259.492188 C 298.4375 257.054688 300.96875 253.363281 303.203125 248.394531 C 304.71875 244.953125 306.238281 240.699219 307.757812 235.632812 C 309.582031 229.65625 310.546875 226.464844 310.648438 226.054688 C 310.710938 225.898438 310.746094 225.738281 310.789062 225.578125 L 322.796875 228.941406 C 325.695312 229.757812 326.289062 227.441406 326.628906 226.230469 L 328.058594 221.132812 L 289.789062 216.15625 L 290.90625 212.160156 L 329.175781 217.144531 L 329.941406 214.421875 L 291.667969 209.441406 L 292.785156 205.449219 L 331.058594 210.425781 L 331.820312 207.703125 L 293.554688 202.726562 L 294.671875 198.730469 L 301.511719 199.621094 C 304.617188 195.777344 307.710938 191.945312 309.441406 187.234375 C 310.960938 183.09375 312.464844 178.789062 313.578125 174.519531 C 313.84375 173.519531 314.117188 172.457031 314.347656 171.367188 C 312.035156 171.035156 309.800781 170.203125 308 168.921875 C 304.53125 166.449219 304.695312 158.980469 309.703125 158.742188 C 315.390625 158.46875 316.746094 166.683594 316.011719 170.664062 C 315.984375 170.800781 315.949219 170.945312 315.925781 171.078125 C 317.589844 171.15625 319.238281 170.863281 320.621094 170.152344 C 318.925781 165.429688 318.359375 160.210938 320.804688 156.730469 C 322.203125 154.75 328.871094 149.160156 330.890625 153.832031 C 333.515625 159.886719 327.925781 167.460938 322.382812 170.222656 C 322.476562 170.503906 322.574219 170.792969 322.675781 171.070312 C 323.457031 173.199219 324.664062 176.09375 326.429688 178.214844 C 327.394531 176.457031 328.589844 174.820312 330.070312 173.375 C 331.847656 171.640625 333.921875 170.625 336.375 171.5 C 339.917969 172.761719 340.25 177.34375 337.742188 179.601562 C 335.007812 182.058594 330.367188 182.128906 327.203125 180.269531 C 326.871094 181.011719 326.605469 181.667969 326.4375 182.160156 C 324.144531 188.851562 324.277344 195.859375 325.398438 202.730469 L 332.9375 203.710938 L 333.160156 202.933594 L 335.9375 193.027344 C 351.085938 190.015625 364.039062 178.8125 368.492188 162.921875 C 374.804688 140.398438 361.671875 117.027344 339.148438 110.71875 " fill-opacity="1" fill-rule="nonzero"/><path fill="rgb(0%, 0%, 0%)" d="M 328.714844 161.945312 C 329.453125 160.398438 331.664062 150.285156 326.378906 153.152344 C 320.230469 156.484375 320.285156 163.320312 322.082031 169.273438 C 324.816406 167.453125 327.308594 164.875 328.714844 161.945312 " fill-opacity="1" fill-rule="nonzero"/><path fill="rgb(0%, 0%, 0%)" d="M 307.5 162.121094 C 306.0625 166.882812 310.023438 170.148438 314.4375 170.917969 C 314.921875 168.378906 315.050781 165.734375 313.875 163.457031 C 312.492188 160.761719 308.953125 157.300781 307.5 162.121094 " fill-opacity="1" fill-rule="nonzero"/><path fill="rgb(0%, 0%, 0%)" d="M 337.035156 173.515625 C 333.703125 169.203125 329.679688 175.15625 327.605469 179.414062 C 329.210938 180.808594 331.1875 181.519531 333.617188 180.726562 C 336.695312 179.730469 339.507812 176.710938 337.035156 173.515625 " fill-opacity="1" fill-rule="nonzero"/><path fill="rgb(0%, 0%, 0%)" d="M 15.097656 193.269531 L 15.097656 196.382812 L 2.347656 196.382812 C 1.117188 196.382812 0.121094 197.382812 0.121094 198.609375 C 0.121094 199.835938 1.117188 200.832031 2.347656 200.832031 L 15.097656 200.832031 L 15.097656 217.21875 L 2.347656 217.21875 C 1.117188 217.21875 0.121094 218.210938 0.121094 219.441406 C 0.121094 220.671875 1.117188 221.664062 2.347656 221.664062 L 15.097656 221.664062 L 15.097656 224.789062 C 15.097656 227.894531 17.613281 230.402344 20.714844 230.402344 L 31.324219 230.402344 L 31.324219 187.648438 L 20.714844 187.648438 C 17.613281 187.648438 15.097656 190.160156 15.097656 193.269531 " fill-opacity="1" fill-rule="nonzero"/></svg>