<?xml version="1.0" encoding="UTF-8"?><svg xmlns="http://www.w3.org/2000/svg" xmlns:xlink="http://www.w3.org/1999/xlink" width="375" zoomAndPan="magnify" viewBox="0 0 375 374.999991" height="374.999991" preserveAspectRatio="xMidYMid meet" version="1.0"><defs><clipPath id="clip-0"><path d="M 10.765625 2.96875 L 364.015625 2.96875 L 364.015625 356.21875 L 10.765625 356.21875 Z M 10.765625 2.96875 " clip-rule="nonzero"/></clipPath></defs><g clip-path="url(#clip-0)"><path fill="rgb(58.428955%, 85.879517%, 83.139038%)" d="M 364.015625 179.59375 C 364.015625 277.140625 284.9375 356.21875 187.390625 356.21875 C 89.84375 356.21875 10.765625 277.140625 10.765625 179.59375 C 10.765625 82.046875 89.84375 2.96875 187.390625 2.96875 C 284.9375 2.96875 364.015625 82.046875 364.015625 179.59375 " fill-opacity="1" fill-rule="nonzero"/></g><path fill="rgb(98.429871%, 78.039551%, 29.019165%)" d="M 235.609375 100.820312 C 235.1875 98.773438 234.691406 96.722656 234.195312 94.742188 C 233.488281 92.0625 237.660156 90.929688 238.363281 93.542969 C 238.859375 95.59375 239.425781 97.640625 239.777344 99.621094 C 240.273438 102.375 236.175781 103.507812 235.609375 100.820312 Z M 230.734375 84.570312 C 226.707031 75.035156 220.632812 65.988281 211.800781 60.125 C 208.761719 58.078125 205.230469 56.097656 201.628906 55.390625 C 198.871094 54.898438 200.074219 50.730469 202.828125 51.226562 C 207.136719 52.070312 211.378906 54.472656 214.910156 56.945312 C 224.234375 63.515625 230.59375 72.984375 234.902344 83.300781 C 235.960938 85.914062 231.792969 87.042969 230.734375 84.570312 Z M 187.566406 45.359375 C 157.257812 45.359375 132.601562 70.015625 132.601562 100.328125 C 132.601562 110.640625 135.921875 121.382812 144.1875 131.976562 C 152.453125 142.574219 157.257812 149.074219 157.257812 156.988281 C 157.257812 164.832031 159.023438 168.925781 164.535156 168.925781 C 167.289062 168.925781 172.941406 168.925781 177.886719 168.925781 L 177.886719 125.125 L 171.460938 125.125 C 166.300781 125.125 162.132812 120.957031 162.132812 115.796875 C 162.132812 110.640625 166.300781 106.472656 171.460938 106.472656 C 176.617188 106.472656 180.785156 110.640625 180.785156 115.796875 L 180.785156 122.226562 L 194.277344 122.226562 L 194.277344 115.796875 C 194.277344 110.640625 198.449219 106.472656 203.605469 106.472656 C 208.761719 106.472656 212.929688 110.640625 212.929688 115.796875 C 212.929688 120.957031 208.761719 125.125 203.605469 125.125 L 197.175781 125.125 L 197.175781 168.855469 C 202.191406 168.855469 207.84375 168.855469 210.527344 168.855469 C 216.109375 168.855469 217.804688 164.832031 217.804688 156.914062 C 217.804688 149.074219 222.609375 142.503906 230.875 131.90625 C 239.140625 121.308594 242.464844 110.570312 242.464844 100.253906 C 242.53125 70.015625 217.945312 45.359375 187.566406 45.359375 Z M 171.527344 109.441406 C 167.925781 109.441406 165.101562 112.335938 165.101562 115.871094 C 165.101562 119.472656 167.996094 122.296875 171.527344 122.296875 L 177.960938 122.296875 L 177.960938 115.871094 C 177.960938 112.335938 175.0625 109.441406 171.527344 109.441406 Z M 194.351562 125.195312 L 180.855469 125.195312 L 180.855469 168.925781 C 184.671875 168.925781 187.636719 168.925781 187.636719 168.925781 C 187.636719 168.925781 190.535156 168.925781 194.421875 168.925781 L 194.421875 125.195312 Z M 210.175781 115.871094 C 210.175781 112.265625 207.277344 109.441406 203.746094 109.441406 C 200.214844 109.441406 197.316406 112.335938 197.316406 115.871094 L 197.316406 122.296875 L 203.746094 122.296875 C 207.207031 122.296875 210.175781 119.472656 210.175781 115.871094 " fill-opacity="1" fill-rule="nonzero"/><path fill="rgb(17.649841%, 23.139954%, 26.669312%)" d="M 210.597656 168.996094 L 210.597656 188.566406 C 210.597656 201.425781 200.074219 211.882812 187.285156 211.882812 C 174.425781 211.882812 163.96875 201.355469 163.96875 188.566406 L 163.96875 168.996094 L 210.597656 168.996094 " fill-opacity="1" fill-rule="nonzero"/><path fill="rgb(20.779419%, 29.40979%, 34.509277%)" d="M 216.179688 189.769531 C 216.179688 188.074219 214.765625 186.800781 213.070312 187.015625 L 161.425781 192.664062 C 159.730469 192.878906 158.316406 194.433594 158.316406 196.125 C 158.316406 197.824219 159.730469 199.097656 161.425781 198.882812 L 213.070312 193.230469 C 214.839844 193.019531 216.179688 191.464844 216.179688 189.769531 Z M 213.070312 179.523438 L 161.425781 185.175781 C 159.730469 185.386719 158.316406 184.117188 158.316406 182.421875 C 158.316406 180.726562 159.730469 179.171875 161.425781 178.960938 L 213.070312 173.308594 C 214.765625 173.097656 216.179688 174.367188 216.179688 176.0625 C 216.179688 177.828125 214.839844 179.382812 213.070312 179.523438 " fill-opacity="1" fill-rule="nonzero"/><path fill="rgb(100%, 100%, 100%)" d="M 267.402344 57.796875 C 260.335938 61.824219 253.269531 65.777344 246.277344 69.804688 C 244.085938 71.007812 242.25 67.6875 244.371094 66.554688 C 251.433594 62.527344 258.5 58.570312 265.492188 54.546875 C 267.683594 53.273438 269.59375 56.664062 267.402344 57.796875 Z M 257.300781 96.792969 C 265.351562 96.226562 273.476562 95.664062 281.601562 95.097656 C 284.003906 94.957031 284.355469 98.773438 281.816406 98.914062 C 273.757812 99.480469 265.632812 100.042969 257.507812 100.609375 C 255.109375 100.75 254.828125 97.007812 257.300781 96.792969 Z M 223.457031 51.859375 C 227.203125 44.652344 231.015625 37.449219 234.691406 30.242188 C 235.820312 28.050781 239.210938 29.890625 238.011719 32.007812 C 234.265625 39.214844 230.453125 46.421875 226.777344 53.625 C 225.648438 55.816406 222.328125 53.980469 223.457031 51.859375 Z M 197.464844 168.855469 C 201.832031 168.929688 204.980469 168.996094 204.980469 168.996094 C 204.980469 168.996094 205.011719 168.949219 205.066406 168.855469 C 202.695312 168.855469 200.011719 168.855469 197.464844 168.855469 Z M 177.960938 122.296875 L 171.527344 122.296875 C 167.996094 122.296875 165.101562 119.472656 165.101562 115.871094 C 165.101562 112.335938 167.925781 109.441406 171.527344 109.441406 C 175.0625 109.441406 177.960938 112.335938 177.960938 115.871094 Z M 197.316406 115.871094 C 197.316406 112.335938 200.214844 109.441406 203.746094 109.441406 C 207.277344 109.441406 210.175781 112.265625 210.175781 115.871094 C 210.175781 119.472656 207.207031 122.296875 203.746094 122.296875 L 197.316406 122.296875 Z M 180.855469 125.195312 L 194.421875 125.195312 L 194.421875 168.808594 C 195.375 168.824219 196.296875 168.839844 197.175781 168.851562 L 197.175781 125.125 L 203.605469 125.125 C 208.761719 125.125 212.929688 120.957031 212.929688 115.796875 C 212.929688 110.640625 208.761719 106.472656 203.605469 106.472656 C 198.449219 106.472656 194.277344 110.640625 194.277344 115.796875 L 194.277344 122.226562 L 180.785156 122.226562 L 180.785156 115.796875 C 180.785156 110.640625 176.617188 106.472656 171.460938 106.472656 C 166.300781 106.472656 162.132812 110.640625 162.132812 115.796875 C 162.132812 120.957031 166.300781 125.125 171.460938 125.125 L 177.886719 125.125 L 177.886719 168.695312 C 178.816406 168.6875 179.8125 168.683594 180.855469 168.683594 Z M 234.195312 94.742188 C 234.691406 96.722656 235.1875 98.773438 235.609375 100.820312 C 236.175781 103.507812 240.273438 102.375 239.777344 99.621094 C 239.425781 97.640625 238.859375 95.59375 238.363281 93.542969 C 237.660156 90.929688 233.488281 92.0625 234.195312 94.742188 Z M 201.628906 55.390625 C 205.230469 56.097656 208.761719 58.078125 211.800781 60.125 C 220.632812 65.988281 226.707031 75.035156 230.734375 84.570312 C 231.792969 87.042969 235.960938 85.914062 234.902344 83.300781 C 230.59375 72.984375 224.234375 63.515625 214.910156 56.945312 C 211.378906 54.472656 207.136719 52.070312 202.828125 51.226562 C 200.074219 50.730469 198.871094 54.898438 201.628906 55.390625 Z M 171.390625 168.925781 C 171.445312 169.003906 171.492188 169.027344 171.527344 168.996094 C 171.5625 168.972656 171.640625 168.949219 171.753906 168.925781 C 171.632812 168.925781 171.511719 168.925781 171.390625 168.925781 Z M 112.734375 209.976562 L 112.796875 211.601562 C 112.796875 211.851562 113.175781 218.230469 114.613281 223.980469 L 114.734375 224.542969 C 116.050781 229.730469 116.738281 232.546875 111.921875 240.609375 C 110.671875 242.675781 109.421875 244.550781 108.359375 246.238281 C 104.484375 252.304688 101.855469 256.304688 103.234375 260.054688 C 104.296875 262.933594 107.796875 264.058594 110.609375 264.996094 C 111.734375 265.371094 113.613281 265.996094 113.925781 266.433594 C 114.113281 267.308594 114.046875 269.375 113.984375 271.25 C 113.859375 275.4375 113.800781 278.0625 114.921875 279.4375 C 115.863281 280.691406 117.550781 282.128906 118.675781 283.066406 C 118.238281 284.003906 117.925781 285.441406 118.113281 287.503906 C 118.300781 289.441406 119.238281 291.066406 120.113281 292.695312 C 121.054688 294.445312 121.988281 296.070312 121.988281 298.007812 L 121.988281 309.074219 C 121.988281 314.203125 129.867188 315.828125 132.496094 316.328125 C 136.933594 317.203125 145.125 316.390625 151.625 315.765625 C 154.875 315.390625 158.941406 315.015625 159.753906 315.203125 C 163.441406 316.203125 172.761719 320.765625 180.449219 340.585938 L 180.886719 341.710938 L 182.203125 341.710938 C 182.824219 341.652344 197.644531 339.710938 212.835938 333.398438 C 233.34375 324.832031 244.410156 312.261719 244.847656 297.070312 L 244.847656 296.820312 C 244.847656 296.695312 243.160156 281.0625 245.851562 273.3125 C 246.914062 270.25 250.851562 264.433594 254.976562 258.242188 C 261.792969 247.992188 269.546875 236.421875 270.484375 229.167969 C 271.921875 217.789062 271.921875 211.789062 271.921875 211.539062 L 271.921875 209.976562 Z M 182.480469 41.121094 C 182.480469 32.996094 182.480469 24.945312 182.480469 16.746094 C 182.480469 14.347656 186.296875 14.347656 186.296875 16.746094 C 186.296875 24.871094 186.296875 32.996094 186.296875 41.121094 C 186.226562 43.59375 182.480469 43.59375 182.480469 41.121094 Z M 90.351562 97.996094 C 98.40625 98.558594 106.53125 99.125 114.65625 99.6875 C 117.058594 99.902344 116.847656 103.71875 114.445312 103.507812 C 106.390625 102.941406 98.265625 102.375 90.140625 101.808594 C 87.667969 101.597656 87.878906 97.855469 90.351562 97.996094 Z M 144.402344 51.507812 C 140.65625 44.300781 136.839844 37.164062 133.164062 29.890625 C 132.035156 27.699219 135.355469 25.933594 136.488281 28.121094 C 140.230469 35.398438 144.046875 42.535156 147.71875 49.738281 C 148.851562 51.859375 145.460938 53.625 144.402344 51.507812 Z M 104.550781 60.621094 C 102.433594 59.417969 104.34375 56.097656 106.460938 57.371094 C 113.527344 61.398438 120.59375 65.355469 127.585938 69.382812 C 129.632812 70.511719 127.796875 73.902344 125.679688 72.632812 C 118.613281 68.601562 111.546875 64.648438 104.550781 60.621094 " fill-opacity="1" fill-rule="nonzero"/></svg>