<?xml version="1.0" encoding="UTF-8"?><svg xmlns="http://www.w3.org/2000/svg" xmlns:xlink="http://www.w3.org/1999/xlink" width="375" zoomAndPan="magnify" viewBox="0 0 375 374.999991" height="374.999991" preserveAspectRatio="xMidYMid meet" version="1.0"><defs><clipPath id="clip-0"><path d="M 53.144531 4.082031 L 321.644531 4.082031 L 321.644531 294 L 53.144531 294 Z M 53.144531 4.082031 " clip-rule="nonzero"/></clipPath><clipPath id="clip-1"><path d="M 126 347 L 252 347 L 252 370.832031 L 126 370.832031 Z M 126 347 " clip-rule="nonzero"/></clipPath></defs><path fill="rgb(22.349548%, 20.779419%, 21.179199%)" d="M 129.449219 139.636719 C 130.210938 138.582031 131.117188 138.027344 132.171875 137.964844 L 132.785156 137.964844 C 133.605469 137.964844 134.394531 138.054688 135.15625 138.226562 C 135.273438 140.164062 135.328125 142.328125 135.328125 144.726562 L 135.328125 152.023438 C 135.328125 156.589844 135.507812 160.71875 135.859375 164.40625 C 136.148438 168.097656 136.96875 170.054688 138.316406 170.292969 C 139.132812 170.464844 140.074219 169.355469 141.125 166.953125 C 142.179688 164.613281 143.148438 161.976562 144.019531 159.050781 C 144.78125 156.589844 145.460938 154.277344 146.042969 152.105469 C 146.625 149.941406 147.007812 148.390625 147.183594 147.449219 C 147.769531 147.511719 148.703125 147.570312 149.992188 147.628906 C 149.761719 148.742188 149.289062 150.878906 148.589844 154.039062 C 147.886719 157.148438 146.921875 160.277344 145.691406 163.441406 C 145.046875 165.140625 144.34375 166.75 143.582031 168.273438 C 142.824219 169.734375 142.003906 170.964844 141.125 171.957031 C 140.480469 172.605469 139.808594 173.132812 139.105469 173.542969 C 138.519531 173.835938 137.9375 173.980469 137.351562 173.980469 C 137.175781 173.980469 137.027344 173.949219 136.910156 173.894531 C 135.976562 173.777344 135.125 173.21875 134.363281 172.222656 C 133.546875 171.226562 132.839844 169.882812 132.257812 168.183594 C 131.144531 164.960938 130.328125 160.832031 129.796875 155.800781 C 129.449219 152.226562 129.277344 148.535156 129.277344 144.726562 C 129.277344 143.035156 129.332031 141.332031 129.449219 139.636719 Z M 133.664062 126.105469 C 133.371094 126.339844 133.050781 126.457031 132.699219 126.457031 C 132.351562 126.457031 131.96875 126.371094 131.554688 126.191406 C 130.738281 125.839844 130.125 125.40625 129.710938 124.878906 C 129.300781 124.347656 129.097656 123.703125 129.097656 122.949219 L 129.097656 122.855469 C 129.097656 122.09375 129.363281 121.480469 129.886719 121.011719 C 130.414062 120.597656 131.144531 120.367188 132.085938 120.308594 L 132.171875 120.308594 C 132.988281 120.308594 133.632812 120.628906 134.101562 121.277344 C 134.628906 121.921875 134.804688 122.769531 134.628906 123.828125 C 134.511719 124.9375 134.1875 125.695312 133.664062 126.105469 " fill-opacity="1" fill-rule="nonzero"/><path fill="rgb(22.349548%, 20.779419%, 21.179199%)" d="M 163.777344 144.199219 C 163.484375 144.324219 163.164062 144.378906 162.8125 144.378906 C 162.460938 144.433594 162.167969 144.433594 161.933594 144.378906 C 161.875 143.554688 161.347656 142.769531 160.351562 142.007812 C 159.359375 141.183594 158.101562 140.808594 156.578125 140.863281 C 154.703125 140.980469 153.152344 142.15625 151.921875 144.378906 C 150.753906 146.605469 149.902344 149.15625 149.378906 152.023438 C 148.734375 155.589844 148.558594 158.992188 148.851562 162.207031 C 149.203125 165.371094 150.023438 167.042969 151.308594 167.21875 C 152.597656 167.394531 154.179688 166.515625 156.050781 164.582031 C 157.867188 162.652344 159.53125 160.484375 161.058594 158.078125 C 162.109375 156.441406 162.988281 154.890625 163.691406 153.429688 C 164.394531 151.90625 164.832031 150.703125 165.007812 149.820312 C 164.886719 141.863281 164.714844 129.945312 164.480469 114.074219 C 165.0625 113.3125 165.738281 112.929688 166.496094 112.929688 C 166.851562 112.929688 167.230469 112.988281 167.640625 113.105469 C 168.867188 113.578125 169.664062 114.160156 170.011719 114.863281 C 169.777344 115.742188 169.632812 118.816406 169.570312 124.085938 C 169.570312 129.414062 169.6875 135.300781 169.917969 141.742188 C 169.996094 144.554688 170.140625 147.363281 170.363281 150.179688 C 170.480469 152.929688 170.65625 155.5625 170.890625 158.078125 C 171.238281 162.824219 171.675781 166.804688 172.207031 170.03125 C 172.734375 173.25 173.375 174.949219 174.136719 175.125 C 174.84375 175.242188 175.597656 174.300781 176.421875 172.3125 C 177.300781 170.320312 178.175781 167.949219 179.054688 165.195312 C 180.050781 161.796875 180.957031 158.375 181.777344 154.921875 C 182.539062 151.464844 183.035156 149.175781 183.265625 148.066406 C 183.914062 148.128906 184.878906 148.15625 186.164062 148.15625 C 185.992188 149.15625 185.578125 151.113281 184.9375 154.039062 C 184.351562 156.96875 183.566406 160.101562 182.566406 163.441406 C 181.394531 167.480469 179.992188 171.171875 178.351562 174.507812 C 176.890625 177.433594 175.277344 178.902344 173.519531 178.902344 C 173.347656 178.902344 173.140625 178.871094 172.90625 178.8125 C 171.144531 178.519531 169.726562 176.964844 168.660156 174.160156 C 167.589844 171.347656 166.753906 168.296875 166.160156 165.023438 C 165.863281 163.265625 165.628906 161.539062 165.445312 159.839844 C 165.269531 158.199219 165.125 156.703125 165.007812 155.359375 C 164.714844 156.179688 163.980469 157.730469 162.8125 160.015625 C 161.523438 162.417969 160.003906 164.640625 158.25 166.691406 C 157.019531 168.097656 155.726562 169.238281 154.382812 170.113281 C 153.035156 170.996094 151.660156 171.3125 150.261719 171.082031 C 147.738281 170.792969 146.011719 169.210938 145.078125 166.335938 C 144.378906 164.230469 144.019531 161.921875 144.019531 159.402344 C 144.019531 158.578125 144.050781 157.699219 144.113281 156.765625 C 144.402344 153.949219 145.046875 151.175781 146.042969 148.421875 C 147.09375 145.667969 148.441406 143.445312 150.082031 141.742188 C 151.015625 140.808594 152.011719 140.046875 153.066406 139.460938 C 154.117188 138.9375 155.261719 138.671875 156.492188 138.671875 C 158.769531 138.609375 160.558594 139.285156 161.847656 140.683594 C 163.132812 142.09375 163.777344 143.265625 163.777344 144.199219 " fill-opacity="1" fill-rule="nonzero"/><path fill="rgb(22.349548%, 20.779419%, 21.179199%)" d="M 192.136719 151.40625 C 194.007812 150.648438 195.382812 149.679688 196.261719 148.507812 C 197.960938 146.339844 198.285156 144.027344 197.230469 141.566406 C 196.175781 139.050781 194.507812 137.824219 192.222656 137.878906 C 190.351562 137.9375 188.945312 138.9375 188.007812 140.863281 C 187.011719 142.800781 186.371094 145.171875 186.078125 147.976562 C 185.960938 149.328125 185.898438 150.792969 185.898438 152.371094 C 188.417969 152.433594 190.5 152.105469 192.136719 151.40625 Z M 186.34375 157.644531 C 186.808594 161.449219 187.6875 164.875 188.980469 167.921875 C 190.203125 170.964844 191.699219 172.605469 193.453125 172.839844 C 194.859375 173.015625 196.144531 172.785156 197.320312 172.136719 C 198.546875 171.492188 199.714844 170.554688 200.828125 169.324219 C 201.707031 168.390625 202.523438 167.277344 203.285156 165.984375 C 204.046875 164.757812 204.75 163.441406 205.394531 162.035156 C 206.679688 159.457031 207.734375 156.878906 208.554688 154.308594 C 209.433594 151.671875 210.105469 149.503906 210.574219 147.804688 C 211.042969 147.683594 211.507812 147.628906 211.976562 147.628906 C 212.445312 147.628906 212.917969 147.683594 213.382812 147.804688 C 212.972656 149.734375 212.300781 152.195312 211.363281 155.1875 C 210.429688 158.113281 209.253906 161.011719 207.851562 163.878906 C 207.089844 165.457031 206.242188 166.953125 205.308594 168.359375 C 204.367188 169.765625 203.375 170.996094 202.320312 172.050781 C 201.03125 173.394531 199.597656 174.421875 198.019531 175.125 C 196.90625 175.589844 195.710938 175.824219 194.417969 175.824219 C 193.949219 175.824219 193.484375 175.800781 193.015625 175.738281 C 191.082031 175.441406 189.386719 174.828125 187.921875 173.894531 C 186.457031 173.015625 185.199219 171.871094 184.148438 170.464844 C 182.507812 168.242188 181.394531 165.605469 180.808594 162.566406 C 180.402344 160.515625 180.195312 158.40625 180.195312 156.234375 C 180.195312 155.300781 180.222656 154.363281 180.285156 153.429688 C 180.695312 148.742188 181.921875 144.554688 183.96875 140.863281 C 186.078125 137.234375 188.683594 135.386719 191.789062 135.332031 L 191.875 135.332031 C 193.335938 135.332031 194.621094 135.59375 195.734375 136.121094 C 196.90625 136.648438 197.871094 137.347656 198.636719 138.226562 C 200.035156 139.871094 200.710938 141.890625 200.652344 144.292969 C 200.535156 146.632812 199.566406 148.742188 197.753906 150.613281 C 196.523438 151.789062 194.886719 152.753906 192.839844 153.515625 C 190.910156 154.214844 188.625 154.566406 185.992188 154.566406 C 186.046875 155.5625 186.164062 156.589844 186.34375 157.644531 " fill-opacity="1" fill-rule="nonzero"/><path fill="rgb(22.349548%, 20.779419%, 21.179199%)" d="M 229.1875 141.128906 C 228.890625 141.246094 228.574219 141.304688 228.222656 141.304688 C 227.871094 141.363281 227.574219 141.363281 227.34375 141.304688 C 227.285156 140.484375 226.757812 139.691406 225.761719 138.9375 C 224.710938 138.171875 223.421875 137.824219 221.898438 137.878906 C 220.082031 137.996094 218.503906 139.167969 217.160156 141.390625 C 215.75 143.617188 214.667969 146.167969 213.90625 149.035156 C 212.972656 152.550781 212.535156 155.886719 212.59375 159.050781 C 212.652344 162.269531 213.324219 163.9375 214.613281 164.058594 C 215.898438 164.230469 217.570312 163.46875 219.617188 161.773438 C 221.664062 160.132812 223.566406 158.257812 225.324219 156.148438 C 226.492188 154.742188 227.519531 153.371094 228.390625 152.023438 C 229.332031 150.734375 229.949219 149.648438 230.242188 148.769531 C 230.351562 147.425781 230.476562 145.375 230.59375 142.621094 C 231.410156 141.566406 232.320312 141.011719 233.316406 140.949219 C 234.304688 140.894531 235.300781 140.980469 236.296875 141.214844 C 236.414062 143.207031 236.476562 145.375 236.476562 147.714844 C 236.476562 150.117188 236.503906 152.550781 236.5625 155.007812 C 236.675781 159.515625 236.941406 163.585938 237.351562 167.21875 C 237.757812 170.847656 238.636719 172.785156 239.988281 173.015625 C 240.691406 173.132812 241.449219 172.285156 242.269531 170.464844 C 243.085938 168.65625 243.875 166.484375 244.636719 163.96875 C 245.519531 160.863281 246.339844 157.699219 247.097656 154.480469 C 247.800781 151.257812 248.269531 149.089844 248.503906 147.976562 C 249.085938 148.042969 250.019531 148.128906 251.3125 148.242188 C 251.078125 149.175781 250.667969 151.023438 250.082031 153.777344 C 249.496094 156.589844 248.765625 159.574219 247.890625 162.738281 C 246.714844 166.605469 245.308594 170.113281 243.675781 173.28125 C 242.207031 176.207031 240.570312 177.644531 238.757812 177.582031 L 238.320312 177.582031 C 236.503906 177.347656 235.039062 175.738281 233.929688 172.75 C 232.816406 169.707031 231.964844 166.429688 231.382812 162.914062 C 231.089844 160.921875 230.851562 159.019531 230.679688 157.203125 C 230.503906 155.328125 230.351562 153.6875 230.242188 152.285156 C 229.832031 153.046875 228.835938 154.683594 227.257812 157.203125 C 225.675781 159.664062 223.832031 161.976562 221.722656 164.144531 C 220.378906 165.605469 218.96875 166.78125 217.507812 167.65625 C 215.988281 168.59375 214.550781 169.003906 213.207031 168.886719 C 212.09375 168.710938 211.191406 168.296875 210.484375 167.65625 C 209.726562 167.015625 209.136719 166.191406 208.730469 165.195312 C 208.140625 163.613281 207.851562 161.773438 207.851562 159.664062 L 207.851562 157.992188 C 208.027344 155.1875 208.585938 152.339844 209.519531 149.472656 C 210.691406 145.839844 212.359375 142.652344 214.523438 139.898438 C 216.691406 137.148438 219.089844 135.707031 221.722656 135.59375 L 222.074219 135.59375 C 224.238281 135.59375 225.964844 136.269531 227.257812 137.613281 C 228.539062 138.960938 229.1875 140.132812 229.1875 141.128906 " fill-opacity="1" fill-rule="nonzero"/><g clip-path="url(#clip-0)"><path fill="rgb(22.349548%, 20.779419%, 21.179199%)" d="M 125.363281 287.375 L 252.09375 287.375 L 254.152344 270.160156 C 255.785156 256.273438 264.796875 236.542969 274.226562 226.183594 C 274.640625 225.734375 315.132812 180.625 314.765625 136.867188 C 314.179688 67.257812 257.105469 10.644531 187.535156 10.644531 L 186.417969 10.644531 C 116.242188 11.261719 59.648438 68.875 60.25 139.074219 C 60.617188 182.859375 101.910156 227.226562 102.335938 227.671875 C 111.933594 237.875 121.273438 257.457031 123.15625 271.308594 Z M 254.972656 293.871094 L 122.523438 293.871094 C 120.90625 293.871094 119.53125 292.679688 119.308594 291.066406 L 116.726562 272.191406 C 115.027344 259.679688 106.257812 241.332031 97.601562 232.117188 C 95.828125 230.238281 54.148438 185.445312 53.753906 139.136719 C 53.121094 65.351562 112.597656 4.792969 186.359375 4.148438 L 187.535156 4.144531 C 260.648438 4.144531 320.648438 63.65625 321.261719 136.8125 C 321.65625 183.128906 280.773438 228.644531 279.027344 230.558594 C 270.515625 239.90625 262.078125 258.394531 260.597656 270.933594 L 258.203125 291.011719 C 258.007812 292.648438 256.621094 293.871094 254.972656 293.871094 " fill-opacity="1" fill-rule="nonzero"/></g><path fill="rgb(22.349548%, 20.779419%, 21.179199%)" d="M 131.988281 346.742188 L 245.46875 346.742188 C 247 339.320312 248.023438 327.917969 249.113281 315.925781 C 249.824219 307.886719 250.574219 299.617188 251.511719 292.160156 L 125.953125 292.160156 C 126.882812 299.617188 127.628906 307.878906 128.355469 315.90625 C 129.441406 327.910156 130.46875 339.316406 131.988281 346.742188 Z M 248.058594 353.242188 L 129.398438 353.242188 C 127.917969 353.242188 126.617188 352.238281 126.257812 350.804688 C 124.285156 343.089844 123.113281 330.167969 121.882812 316.5 C 121.042969 307.183594 120.179688 297.558594 119.023438 289.371094 C 118.886719 288.441406 119.167969 287.5 119.789062 286.792969 C 120.398438 286.074219 121.296875 285.664062 122.234375 285.664062 L 255.222656 285.664062 C 256.15625 285.664062 257.050781 286.074219 257.679688 286.792969 C 258.296875 287.5 258.566406 288.441406 258.445312 289.371094 C 257.289062 297.570312 256.414062 307.191406 255.582031 316.507812 C 254.347656 330.175781 253.183594 343.089844 251.199219 350.804688 C 250.828125 352.238281 249.539062 353.242188 248.058594 353.242188 " fill-opacity="1" fill-rule="nonzero"/><g clip-path="url(#clip-1)"><path fill="rgb(22.349548%, 20.779419%, 21.179199%)" d="M 135.757812 352.625 C 146.941406 360.414062 167.070312 365.394531 188.804688 365.394531 C 210.523438 365.394531 230.652344 360.414062 241.84375 352.625 Z M 188.804688 370.65625 C 161.398438 370.65625 137.058594 363.238281 126.792969 351.742188 C 126.101562 350.96875 125.925781 349.867188 126.347656 348.917969 C 126.773438 347.976562 127.722656 347.367188 128.75 347.367188 L 248.859375 347.367188 C 249.894531 347.367188 250.828125 347.976562 251.25 348.917969 C 251.667969 349.867188 251.503906 350.96875 250.808594 351.742188 C 240.539062 363.238281 216.199219 370.65625 188.804688 370.65625 " fill-opacity="1" fill-rule="nonzero"/></g><path fill="rgb(22.349548%, 20.779419%, 21.179199%)" d="M 254.164062 295.222656 L 122.933594 295.3125 C 123.085938 295.367188 122.546875 296.253906 122.546875 297.785156 C 122.546875 299.332031 123.085938 300.214844 123.289062 300.351562 L 254.261719 300.265625 C 254.496094 299.976562 254.910156 299.128906 254.910156 297.785156 C 254.910156 296.253906 254.355469 295.367188 254.164062 295.222656 Z M 254.523438 305.5 L 122.933594 305.5 C 119.726562 305.5 117.316406 302.175781 117.316406 297.785156 C 117.316406 293.398438 119.726562 290.078125 122.933594 290.078125 L 254.523438 290.078125 C 257.722656 290.078125 260.140625 293.398438 260.140625 297.785156 C 260.140625 302.175781 257.722656 305.5 254.523438 305.5 " fill-opacity="1" fill-rule="nonzero"/><path fill="rgb(22.349548%, 20.779419%, 21.179199%)" d="M 254.164062 314.75 L 122.933594 314.839844 C 123.085938 314.898438 122.546875 315.78125 122.546875 317.316406 C 122.546875 318.847656 123.085938 319.738281 123.289062 319.882812 L 254.261719 319.789062 C 254.496094 319.5 254.910156 318.660156 254.910156 317.316406 C 254.910156 315.78125 254.363281 314.898438 254.164062 314.75 Z M 254.523438 325.027344 L 122.933594 325.027344 C 119.726562 325.027344 117.316406 321.707031 117.316406 317.316406 C 117.316406 312.921875 119.726562 309.613281 122.933594 309.613281 L 254.523438 309.613281 C 257.722656 309.613281 260.140625 312.921875 260.140625 317.316406 C 260.140625 321.707031 257.722656 325.027344 254.523438 325.027344 " fill-opacity="1" fill-rule="nonzero"/><path fill="rgb(22.349548%, 20.779419%, 21.179199%)" d="M 252 337.199219 L 125.253906 337.316406 C 125.484375 337.351562 124.957031 338.257812 124.957031 339.792969 C 124.957031 341.332031 125.484375 342.230469 125.683594 342.378906 L 252.105469 342.265625 C 252.335938 341.949219 252.722656 341.101562 252.722656 339.792969 C 252.722656 338.257812 252.195312 337.351562 252 337.199219 Z M 252.433594 347.5 L 125.253906 347.5 C 122.105469 347.5 119.726562 344.179688 119.726562 339.792969 C 119.726562 335.402344 122.105469 332.082031 125.253906 332.082031 L 252.433594 332.082031 C 255.582031 332.082031 257.953125 335.402344 257.953125 339.792969 C 257.953125 344.179688 255.582031 347.5 252.433594 347.5 " fill-opacity="1" fill-rule="nonzero"/><path fill="rgb(22.349548%, 20.779419%, 21.179199%)" d="M 153.910156 289.261719 L 124.308594 157.703125 L 124.355469 157.742188 L 124.289062 157.5625 C 124.253906 157.457031 124.214844 157.347656 124.179688 157.242188 C 123.765625 156.003906 121.980469 148.484375 121.949219 148.449219 C 121.238281 147.589844 120.019531 147.339844 119.011719 147.820312 C 118.007812 148.332031 117.464844 149.453125 117.703125 150.546875 L 149.15625 290.320312 C 149.398438 291.464844 150.421875 292.234375 151.53125 292.222656 C 151.714844 292.226562 151.878906 292.207031 152.054688 292.167969 C 153.367188 291.875 154.1875 290.570312 153.910156 289.261719 " fill-opacity="1" fill-rule="nonzero"/><path fill="rgb(22.349548%, 20.779419%, 21.179199%)" d="M 252.769531 145.265625 C 251.734375 144.847656 250.558594 145.175781 249.878906 146.085938 C 249.335938 146.824219 248.742188 147.546875 248.144531 148.265625 C 248.777344 150.578125 248.746094 153.101562 248.050781 155.398438 L 248.167969 155.292969 L 227.355469 288.742188 C 227.144531 290.074219 228.054688 291.320312 229.363281 291.53125 C 230.710938 291.726562 231.9375 290.8125 232.15625 289.5 L 254.242188 147.898438 C 254.417969 146.796875 253.796875 145.726562 252.769531 145.265625 " fill-opacity="1" fill-rule="nonzero"/><path fill="rgb(22.349548%, 20.779419%, 21.179199%)" d="M 129.1875 174.921875 C 126.667969 174.921875 123.566406 172.558594 118.816406 150.257812 C 118.597656 149.222656 119.253906 148.207031 120.28125 147.988281 C 121.3125 147.777344 122.332031 148.425781 122.546875 149.460938 C 126.003906 165.6875 127.804688 170.691406 129.1875 170.839844 C 130.324219 170.691406 131.753906 168.695312 130.472656 160.8125 C 130.300781 159.765625 132.421875 160.011719 133.464844 160.109375 C 134.511719 160.214844 135.273438 161.15625 135.164062 162.207031 C 134.570312 167.898438 133.097656 174.71875 129.425781 174.914062 L 129.1875 174.921875 " fill-opacity="1" fill-rule="nonzero"/></svg>